<?xml version="1.0" encoding="utf-8"?>
<!-- Generator: Adobe Illustrator 16.0.0, SVG Export Plug-In . SVG Version: 6.00 Build 0)  -->
<!DOCTYPE svg PUBLIC "-//W3C//DTD SVG 1.1//EN" "http://www.w3.org/Graphics/SVG/1.1/DTD/svg11.dtd">
<svg version="1.1" xmlns="http://www.w3.org/2000/svg" xmlns:xlink="http://www.w3.org/1999/xlink" x="0px" y="0px" width="750px"
	 height="500px" viewBox="0 0 750 500" style="enable-background:new 0 0 750 500;" xml:space="preserve">
<style type="text/css">
<![CDATA[
	.st0{fill:none;stroke:#667A41;stroke-width:0.75;stroke-linecap:round;stroke-linejoin:round;stroke-miterlimit:10;}
	.st1{fill:#E54033;}
	.st2{fill:#4C6B10;}
	.st3{fill:#4F682B;}
	.st4{fill:#825423;}
	.st5{fill:#B6CC56;}
	.st6{fill:#EBFDF9;}
	.st7{fill:#501F10;}
	.st8{enable-background:new    ;}
	.st9{fill:#526B2A;}
	.st10{fill:none;stroke:#445C2A;stroke-width:2;stroke-miterlimit:10;}
	.st11{fill:#59370A;}
	.st12{fill:#8DBB41;}
	.st13{clip-path:url(#SVGID_3_);}
	.st14{fill:#5F8518;}
	.st15{opacity:0.47;fill:#8DBB41;}
	.st16{fill:url(#SVGID_1_);}
	.st17{fill:url(#SVGID_4_);}
	.st18{fill:none;stroke:#445C2A;stroke-miterlimit:10;}
	.st19{fill:#FA6142;}
	.st20{fill:#FBB41C;}
	.st21{fill:#FCA51A;}
	.st22{fill:#99F1DB;}
	.st23{fill:#FDEDBB;}
	.st24{fill:#608431;}
	.st25{fill:#FFD63E;}
	.st26{fill:#FFE473;}
	.st27{fill:#FFFFFF;}
	.st28{fill:#385320;}
	.st29{fill:#6FAD3A;}
	.st30{fill:#3BBFB3;}
	.st31{fill:#3F5A26;}
	.st32{fill:#739120;}
	.st33{fill:#445C2A;}
]]>
</style>
<g id="BACKGROUND">
	<linearGradient id="SVGID_1_" gradientUnits="userSpaceOnUse" x1="375.7012" y1="216.1997" x2="380.2047" y2="-1.0955">
		<stop  offset="0.3175" style="stop-color:#BEFAEC"/>
		<stop  offset="1" style="stop-color:#A2F5D9"/>
	</linearGradient>
	<rect class="st16" width="750" height="500"/>
</g>
<g id="OBJECTS" xmlns:serif="http://www.serif.com/">
	<g>
		<defs>
			<rect id="SVGID_2_" width="750" height="500"/>
		</defs>
		<clipPath id="SVGID_3_">
			<use xlink:href="#SVGID_2_"  style="overflow:visible;"/>
		</clipPath>
		<g class="st13">
			<g>
				<g>
					<g>
						<path class="st6" d="M167.7,142.4c-3.4,0-6.7,0.6-9.7,1.6c0-0.5,0-1,0-1.6c0-8.5-3.1-16.4-8.3-22.9c10.9-7.7,18-19.9,18-33.7
							c0-23.3-20.2-42.1-45.1-42.1c-4.9,0-9.7,0.8-14.1,2.1c0.5-2.2,0.8-4.5,0.8-6.9c0-18.7-16.6-33.8-37.1-33.8S35,20.3,35,38.9
							c0,8.1,3.2,15.6,8.4,21.4C26.7,66.7,15,80.8,15,97.3c0,22.2,21.3,40.2,47.7,40.5c-0.2,1.5-0.3,3.1-0.3,4.6
							c0,22.5,21.4,40.7,47.9,40.7c12.3,0,23.4-3.9,31.9-10.3c3.5,9.4,13.6,16.1,25.6,16.1c14.8,0,26.9-10.4,26.9-23.2
							C194.6,152.8,182.5,142.4,167.7,142.4z"/>
						<path class="st6" d="M722.8,64c9.5-6.9,15.5-17.2,15.5-28.7c0-20.7-19.4-37.5-43.3-37.5s-43.3,16.8-43.3,37.5
							c0,17.2,13.4,31.7,31.8,36.1c-14.3,8.3-24.1,22.2-25.3,38.2c-5.6,0.7-10.7,2.5-15.2,5.1c-0.1-26.3-26.5-47.6-59-47.6
							c-32.6,0-59,21.4-59,47.7c0,5.1,1,10.1,2.9,14.7c-3.4,1.1-6.3,2.7-8.7,4.6c-10-6.3-22.2-9.9-35.4-9.9
							c-33.9,0-61.3,24.2-61.3,54c0,0.3,0,0.5,0,0.8c-7.3-3.3-15.6-5.2-24.4-5.2c-25.2,0-46.2,15.2-51.2,35.5
							c-1.8-0.4-3.7-0.6-5.6-0.6c-5.5,0-10.7,1.6-15.3,4.3c-0.2-13.4-13.1-24.3-29-24.3c-3,0-5.8,0.4-8.5,1.1
							c-4.8-15.9-17.8-27.4-33.1-27.4c-19.4,0-35.1,18.3-35.1,41s15.7,41,35.1,41c9.4,0,18-4.4,24.3-11.4c4.8,3.1,10.8,4.9,17.4,4.9
							c4.4,0,8.6-0.8,12.3-2.3c-1.3,4.3-2,8.9-2,13.7c0,22.4,15.2,40.5,34,40.5c16,0,29.4-13.1,33-30.8c7.1,3.1,15.2,4.9,23.8,4.9
							c27.1,0,49.5-17.7,52.2-40.4c9.6,5.6,21.2,8.8,33.6,8.8c33.9,0,61.3-24.2,61.3-54c0-5.5-0.9-10.9-2.7-15.9
							c5.6-0.6,10.5-2.5,14.2-5.3c8.2,3.5,17.6,5.5,27.5,5.5c16.9,0,32.1-5.7,42.9-15c2.9,15.6,18.2,27.5,36.5,27.5
							c13.3,0,24.9-6.2,31.4-15.5c6,1.9,12.4,3,19.2,3c30.8,0,55.8-22.2,55.8-49.6C769.7,88.3,749.4,67.8,722.8,64z"/>
					</g>
					<path class="st27" d="M346.3,254.1c-3.8,0-7.4,0.7-10.7,1.9c0.7-3.2,1.1-6.6,1.1-10c0-25.7-20.5-46.5-45.7-46.5
						c-16.3,0-30.7,8.7-38.7,21.8c-3.3-6.3-9.6-10.9-17.1-12.2c1.9-4.6,3-9.5,3-14.7c0-6-1.4-11.6-3.8-16.7
						c9.3-4.3,15.5-12.8,15.5-22.6c0-14.2-13.2-25.6-29.6-25.6c-16.3,0-29.5,11.4-29.6,25.5c-9.3,1.3-17.5,5.5-23.8,11.7
						c-9.3-7.5-21.8-12.1-35.5-12.1c-16.5,0-31.2,6.6-40.7,17c1.2-4.1,1.8-8.4,1.8-12.8c0-27.4-24.2-49.7-54.3-50
						c1.2-2.8,1.9-5.7,1.9-8.7c0-6.4-2.9-12.3-7.8-17.1c18.5-5.1,32-20.2,32-38c0-22-20.5-39.8-45.7-39.8S-27.1,23-27.1,45
						c0,10.5,4.7,20,12.3,27.1c-16.6,3.9-28.6,14.9-28.6,28c0,15.1,16.1,27.5,36.8,29.2c-6.7,8.3-10.6,18.5-10.6,29.5
						c0,9.5,2.9,18.5,8,26.1c-10.7,4.7-17.9,13.1-17.9,22.6c0,14.7,17,26.7,38.1,26.7c20.9,0,37.9-11.8,38.1-26.5
						c12.7-2.4,23.8-8.9,31.6-17.8c-0.8,3.1-1.2,6.3-1.2,9.7c0,24.8,23.3,44.9,52,44.9c16.8,0,31.8-6.9,41.3-17.6
						c6.8,4.6,15,7.3,23.9,7.3c3.8,0,7.4-0.5,10.9-1.4c0.7,11.9,11,21.3,23.6,21.3c5.4,0,10.3-1.7,14.3-4.6c1.7,24,21.5,43,45.6,43
						c10,0,19.2-3.3,26.8-8.8c1.3,13.8,13.6,24.6,28.6,24.6c15.9,0,28.7-12.1,28.7-27.1S362.1,254.1,346.3,254.1z"/>
					<path class="st27" d="M797,118.5c0-12.2-5.6-23.1-14.4-30.1c14.1-6.7,23.3-17.8,23.3-30.4c0-20.5-24.6-37.2-54.9-37.2
						c-30.3,0-54.9,16.6-54.9,37.2c0,16,14.9,29.6,35.8,34.9c-6,6.8-9.7,15.8-9.7,25.6c0,7,1.9,13.6,5.1,19.2c-0.1,0-0.2,0-0.2,0
						c-34.3,0-62.1,22.4-62.1,50.1c0,8.4,2.6,16.3,7.1,23.2c-13.2,2.4-25.4,6.6-35.8,12.2c0-0.7,0.1-1.3,0.1-2
						c0-32.4-32.8-58.7-73.2-58.7c-40.4,0-73.2,26.3-73.2,58.7c0,32.4,32.8,58.7,73.2,58.7c12.7,0,24.6-2.6,35-7.1
						c-0.1,1.4-0.2,2.8-0.2,4.2c0,37.7,44.6,68.2,99.6,68.2c55,0,99.6-30.5,99.6-68.2c0-19.7-12.2-37.4-31.6-49.8
						c14.4-9.2,23.7-23.4,23.7-39.3c0-13-6.1-24.8-16.1-33.6C787.1,148.7,797,134.8,797,118.5z"/>
				</g>
				<g>
					<path class="st6" d="M303.5,39.8c0,1.1-0.5,2.2-1.3,3.2H167.8c-1.5-1.7-2.4-3.6-2.4-5.6c0-6.4,8.5-11.6,19-11.6
						c2.7,0,5.2,0.3,7.5,0.9c1.6-8.2,8.2-14.3,16-14.3c8.1,0,14.8,6.6,16.2,15.2c2.9-1.1,6.3-1.8,10-1.8
						c2.5-7.7,10.8-13.4,20.6-13.4c11.8,0,21.4,8.2,21.4,18.3c0,0.1,0,0.2,0,0.3c1.8-0.2,3.6-0.3,5.5-0.3
						C293.7,30.7,303.5,34.8,303.5,39.8z"/>
					<path class="st6" d="M624.8,17.3c0,1.1-0.5,2.2-1.3,3.2H489.2c-1.5-1.7-2.4-3.6-2.4-5.6c0-6.4,8.5-11.6,19-11.6
						c2.7,0,5.2,0.3,7.5,1c1.6-8.2,8.2-14.3,16-14.3c8.1,0,14.8,6.6,16.2,15.2c2.9-1.1,6.3-1.8,10-1.8c2.5-7.7,10.8-13.4,20.6-13.4
						c11.8,0,21.4,8.2,21.4,18.3c0,0.1,0,0.2,0,0.3c1.8-0.2,3.6-0.3,5.5-0.3C615,8.2,624.8,12.3,624.8,17.3z"/>
					<path class="st6" d="M421.7,102.1H305.8c1.7-1.7,7.7-2.9,14.8-2.9c1,0,1.9,0,2.9,0.1c-1.2-2.2-1.8-4.8-1.8-7.5
						c0-8.4,6.4-15.2,14.3-15.2c4.9,0,9.2,2.6,11.8,6.6c2.1-1.4,4.7-2.3,7.5-2.3c5.7,0,10.6,3.6,12.4,8.6c2-0.8,4.3-1.2,6.8-1.2
						c0.3,0,0.7,0,1,0c2.2-5.8,8.7-10.1,16.4-10.1c9.5,0,17.2,6.4,17.2,14.4c0,2.6-0.8,5-2.2,7c0.7,0,1.5-0.1,2.2-0.1
						C415,99.6,420,100.6,421.7,102.1z"/>
				</g>
			</g>
			<g>
				<g>
					<path class="st30" d="M805.9,332l-3.7,32.9l-2,18.5L-32,366.3l10.6-126c31.7-40.3,79.8-81.5,132.9-105.6
						c27.1,25.5,104.6,85.3,116,94.5c8.6,7,71.8,32.9,122.1,54.9c19.7-18.6,45.7-49.3,51.8-54.9c5.3-4.9,37.1-41,60.7-51.3
						C586.7,243.2,711,311.5,805.9,332z"/>
					<linearGradient id="SVGID_4_" gradientUnits="userSpaceOnUse" x1="361.6387" y1="423.3213" x2="409.7668" y2="229.847">
						<stop  offset="0.3175" style="stop-color:#2BA2A5;stop-opacity:0"/>
						<stop  offset="0.7951" style="stop-color:#2BA2A5"/>
					</linearGradient>
					<path class="st17" d="M802.2,365l-2,18.5L-32,366.3l10.6-126c31.7-40.3,79.8-81.5,132.9-105.6l-11,25.7l20.2,25.3l-59.7,29.9
						l101.6,8l42.8,52l121.6,31l22.6-22.5c19.7-18.6,45.7-49.3,51.8-54.9c5.3-4.9,37.1-41,60.7-51.3l-12.3,27.9l58.4,14.9L469.2,251
						l70.1,15.8L658,328L802.2,365z"/>
				</g>
				<g>
					<g>
						<g>
							<path class="st28" d="M245.5,309.5c0,0,3.9-0.9,4.3-5.9c0.1-1.1,0-2.3-0.8-3c-0.9-0.8-2.3-0.6-3.5-0.4c1.4,0,2.3-1.4,2.9-2.7
								c0.5-1,0.9-2.1,1-3.2c0.1-1.1-0.1-2.3-0.9-3.2s-2-1.1-3-0.6c1.2-0.8,2-2.2,2.1-3.7c0.1-1.2-0.3-2.4-1.2-3.1s-2.7-0.6-3.4,0.3
								c0.1-1.3,0.2-2.6-0.1-3.9c-0.3-1.3-1-2.5-2.2-3.1c-1.8-0.9-4.1,0.1-5.2,1.8c-1.1,1.7-1.2,3.8-0.8,5.8c-0.4-1-2.7-1.1-3.6-0.5
								c-0.9,0.7-1.2,1.9-1,3c0.2,1.1,0.7,2.1,1.3,3c-1.5,0-2.7,0.7-3.3,2.1s-0.5,3,0,4.4c0.5,1.4,1.7,2.6,2.6,3.9
								c-1.6,0-2.8,1.2-3.1,2.7s0.3,3.2,1.4,4.3c1.1,1.1,2.8,2,4.3,2.4c0.3,0.1,1.4,3.5,4.9,4c2.3,0.3,5-0.4,6.5-2.2
								C244.8,311.5,245.6,309.5,245.5,309.5z"/>
							<g>
								<polygon class="st7" points="238.6,286.4 237.2,318.5 239.6,318.7 								"/>
								<polygon class="st7" points="238.6,309.2 246.6,303.6 239.1,310.8 								"/>
								<polygon class="st7" points="238.1,306.7 230.9,303 238,308.2 								"/>
								<polygon class="st7" points="238.5,297.5 245.2,292.3 238.7,298.4 								"/>
								<polygon class="st7" points="238.6,295.9 233.2,291.4 238.2,296.5 								"/>
							</g>
						</g>
						<g>
							<path class="st28" d="M276.1,311.6c0,0,3.4-0.8,3.7-5.1c0.1-1,0-2-0.7-2.7c-0.8-0.7-2-0.5-3.1-0.4c1.2,0,2-1.3,2.5-2.4
								c0.4-0.9,0.8-1.8,0.9-2.8c0.1-1-0.1-2-0.8-2.8s-1.8-1-2.6-0.5c1-0.7,1.7-1.9,1.8-3.2c0.1-1-0.3-2.1-1.1-2.8s-2.4-0.5-3,0.3
								c0.1-1.1,0.1-2.3-0.1-3.4s-0.9-2.2-1.9-2.7c-1.6-0.8-3.6,0.1-4.6,1.6c-1,1.5-1,3.4-0.7,5.1c-0.4-0.9-2.4-1-3.2-0.4
								c-0.8,0.6-1,1.6-0.9,2.6s0.6,1.8,1.1,2.6c-1.3,0-2.3,0.6-2.9,1.8c-0.5,1.2-0.4,2.6,0,3.9c0.4,1.3,1.5,2.3,2.3,3.4
								c-1.4,0-2.4,1-2.7,2.4c-0.3,1.3,0.3,2.8,1.2,3.7s2.4,1.8,3.8,2.1c0.2,0.1,1.2,3.1,4.3,3.5c2,0.3,4.4-0.3,5.7-1.9
								C275.5,313.3,276.2,311.5,276.1,311.6z"/>
							<g>
								<polygon class="st7" points="270.1,291.3 268.8,319.5 270.9,319.6 								"/>
								<polygon class="st7" points="270.1,311.3 277.1,306.4 270.5,312.8 								"/>
								<polygon class="st7" points="269.6,309.1 263.3,305.9 269.5,310.4 								"/>
								<polygon class="st7" points="270,301.1 275.8,296.5 270.1,301.9 								"/>
								<polygon class="st7" points="270.1,299.7 265.4,295.7 269.7,300.2 								"/>
							</g>
						</g>
						<g>
							<path class="st28" d="M212.7,308.5c0,0,2.3-0.6,2.5-4c0.1-0.7,0-1.6-0.5-2c-0.5-0.5-1.4-0.4-2.1-0.3c0.8,0,1.4-1,1.7-1.8
								c0.3-0.7,0.5-1.4,0.6-2.2c0.1-0.8-0.1-1.6-0.5-2.1c-0.5-0.6-1.2-0.7-1.8-0.4c0.7-0.6,1.2-1.5,1.2-2.5
								c0.1-0.8-0.2-1.6-0.7-2.1c-0.6-0.5-1.6-0.4-2,0.2c0.1-0.9,0.1-1.8-0.1-2.6c-0.2-0.9-0.6-1.7-1.3-2.1
								c-1.1-0.6-2.4,0.1-3.1,1.2s-0.7,2.6-0.5,3.9c-0.3-0.7-1.6-0.8-2.1-0.3s-0.7,1.3-0.6,2c0.1,0.7,0.4,1.4,0.7,2
								c-0.9,0-1.6,0.5-1.9,1.4s-0.3,2,0,3s1,1.8,1.5,2.6c-0.9,0-1.6,0.8-1.8,1.8c-0.2,1,0.2,2.1,0.8,2.9s1.7,1.4,2.6,1.6
								c0.2,0,0.8,2.4,2.9,2.7c1.4,0.2,3-0.2,3.9-1.5C212.3,309.8,212.8,308.5,212.7,308.5z"/>
							<g>
								<polygon class="st7" points="208.6,292.9 207.8,314.6 209.2,314.7 								"/>
								<polygon class="st7" points="208.6,308.3 213.4,304.5 208.9,309.4 								"/>
								<polygon class="st7" points="208.3,306.6 204,304.1 208.2,307.6 								"/>
								<polygon class="st7" points="208.6,300.4 212.5,296.9 208.7,301 								"/>
								<polygon class="st7" points="208.6,299.3 205.4,296.3 208.4,299.7 								"/>
							</g>
						</g>
						<g>
							<path class="st28" d="M349.7,318.9c0,0,1.9-0.5,2.1-3.4c0-0.6,0-1.3-0.4-1.7c-0.5-0.5-1.2-0.3-1.8-0.2c0.7,0,1.2-0.8,1.5-1.5
								c0.2-0.6,0.5-1.2,0.5-1.8c0.1-0.6-0.1-1.3-0.5-1.8c-0.4-0.5-1-0.6-1.5-0.3c0.6-0.5,1-1.3,1-2.1c0-0.7-0.1-1.4-0.6-1.8
								c-0.5-0.4-1.4-0.3-1.7,0.2c0-0.7,0.1-1.5-0.1-2.2s-0.5-1.4-1.1-1.8c-0.9-0.5-2.1,0.1-2.6,1c-0.5,1-0.6,2.2-0.4,3.3
								c-0.2-0.6-1.4-0.6-1.8-0.3c-0.4,0.4-0.6,1.1-0.5,1.7c0.1,0.6,0.4,1.2,0.6,1.7c-0.8,0-1.3,0.4-1.6,1.2c-0.3,0.8-0.2,1.7,0,2.5
								s0.9,1.5,1.3,2.2c-0.8,0-1.4,0.7-1.5,1.5c-0.2,0.9,0.2,1.8,0.7,2.4c0.5,0.6,1.4,1.2,2.2,1.4c0.1,0,0.7,2,2.4,2.3
								c1.2,0.2,2.5-0.2,3.3-1.3C349.4,320,349.8,318.8,349.7,318.9z"/>
							<g>
								<polygon class="st7" points="346.3,305.6 345.5,324 346.7,324.1 								"/>
								<polygon class="st7" points="346.2,318.7 350.3,315.5 346.5,319.6 								"/>
								<polygon class="st7" points="346,317.3 342.4,315.1 345.9,318.1 								"/>
								<polygon class="st7" points="346.2,312 349.6,309 346.3,312.5 								"/>
								<polygon class="st7" points="346.3,311.1 343.5,308.5 346,311.4 								"/>
							</g>
						</g>
						<g>
							<path class="st28" d="M365.1,319.5c0,0,1.8-0.4,2-2.6c0-0.5,0-1-0.4-1.4c-0.4-0.4-1.1-0.3-1.6-0.2c0.6,0,1.1-0.6,1.3-1.2
								c0.2-0.5,0.4-0.9,0.5-1.4c0.1-0.5-0.1-1-0.4-1.4c-0.4-0.4-0.9-0.5-1.4-0.3c0.5-0.4,0.9-1,1-1.6c0-0.5-0.1-1.1-0.6-1.4
								c-0.4-0.3-1.2-0.3-1.6,0.2c0-0.6,0.1-1.2-0.1-1.8c-0.1-0.6-0.5-1.1-1-1.4c-0.8-0.4-1.9,0-2.4,0.8s-0.5,1.7-0.4,2.6
								c-0.2-0.4-1.3-0.5-1.7-0.2c-0.4,0.3-0.5,0.8-0.5,1.3c0.1,0.5,0.3,0.9,0.6,1.4c-0.7,0-1.2,0.3-1.5,0.9c-0.3,0.6-0.2,1.4,0,2
								c0.2,0.6,0.8,1.2,1.2,1.7c-0.7,0-1.3,0.5-1.4,1.2s0.2,1.4,0.7,1.9c0.5,0.5,1.3,0.9,2,1.1c0.1,0,0.6,1.6,2.3,1.8
								c1.1,0.1,2.3-0.2,3-1C364.8,320.4,365.2,319.5,365.1,319.5z"/>
							<g>
								<polygon class="st7" points="362,309.1 361.3,323.5 362.4,323.6 								"/>
								<polygon class="st7" points="361.9,319.3 365.7,316.8 362.2,320.1 								"/>
								<polygon class="st7" points="361.7,318.2 358.4,316.5 361.6,318.9 								"/>
								<polygon class="st7" points="361.9,314.1 365,311.7 362,314.5 								"/>
								<polygon class="st7" points="361.9,313.4 359.4,311.3 361.7,313.6 								"/>
							</g>
						</g>
					</g>
					<g>
						<path class="st14" d="M750,338.5l0,4.1l1,69.8L0,423.8V298.7C0,298.7,358.8,328.6,750,338.5z"/>
						<path class="st32" d="M750,338.5l0,4.1c-158.4,0.8-373.6-6.7-434.9-9.9C241,328.8,51.8,309,0,303.5v-4.8
							C0,298.7,358.8,328.6,750,338.5z"/>
					</g>
					<g>
						<g>
							<ellipse class="st2" cx="68.8" cy="327.5" rx="44.2" ry="3.4"/>
							<g>
								<g>
									<path class="st28" d="M60.8,303.8c0.2,0-1.4,4.9-1.8,5.5c-3.3,4.6-9.7,6.8-15.3,6.4c-8.4-0.6-11.8-8.6-12.4-8.7
										c-3.7-0.6-7.9-2.4-10.8-4.9c-2.8-2.5-4.6-6.3-4.1-10c0.4-3.7,3.1-6.6,6.8-7c-2.3-2.8-5.5-5.4-6.9-8.8
										c-1.4-3.3-2-7.2-0.8-10.6c1.2-3.4,3.8-5.2,7.4-5.6c-1.5-2.2-2.9-4.4-3.5-7c-0.6-2.5-0.1-5.5,1.8-7.3c2-1.7,7.4-1.8,8.7,0.5
										c-0.9-3.5-1.2-7.4-0.3-10.9c0.3-1.1,0.7-2.2,1.2-3.2c2.3-4.2,7.7-7,12.1-5.2c2.9,1.2,4.9,4,5.9,7c0.9,3,1,6.2,1,9.3
										c1.5-2.4,5.7-2.9,8-1.4c2.4,1.5,3.5,4.5,3.5,7.3c0,3.5-1.6,6.9-4.3,9.1c2.3-1.5,5.3-1,7.3,0.8c2,1.9,2.8,4.7,2.7,7.4
										c0,0.8-0.1,1.5-0.3,2.3c-0.3,1.9-1,3.8-1.6,5.6c-1.1,2.8-2.8,5.9-5.5,6.8c2.6-0.5,5.4-0.9,7.5,0.6c2.1,1.6,2.6,4.5,2.6,7.1
										C69.9,301,60.8,303.8,60.8,303.8z"/>
									<path class="st3" d="M67.1,269c-0.5-1.7-1.3-3.2-2.4-4.6c-3-3.7-7.8-7.1-12.5-6.1c2.7-2.2,3.5-6.3,1.7-9.3
										c-1.7-3-5.6-4.6-8.8-3.4c1.5-3.1,0.5-7.2-2.1-9.5c-2.6-2.4-6.4-3-9.8-2.1c-1.2,0.3-2.3,0.8-3.4,1.5
										c0.3-1.1,0.7-2.2,1.2-3.2c2.3-4.2,7.7-7,12.1-5.2c2.9,1.2,4.9,4,5.9,7c0.9,3,1,6.2,1,9.3c1.5-2.4,5.7-2.9,8-1.4
										c2.4,1.5,3.5,4.5,3.5,7.3c0,3.5-1.6,6.9-4.3,9.1c2.3-1.5,5.3-1,7.3,0.8c2,1.9,2.8,4.7,2.7,7.4
										C67.3,267.5,67.2,268.3,67.1,269z"/>
									<g>
										<polygon class="st7" points="40.2,249.8 42.5,326.9 48.2,326.9 										"/>
										<polygon class="st7" points="44.2,304.4 62.4,289.6 45.6,308.2 										"/>
										<polygon class="st7" points="42.5,298.4 24.6,290.9 42.5,302.1 										"/>
										<polygon class="st7" points="41.8,276.4 57,262.8 42.5,278.6 										"/>
										<polygon class="st7" points="41.8,272.6 28.1,262.8 40.9,274 										"/>
									</g>
								</g>
								<g>
									<path class="st28" d="M120.6,291.8c-0.4,10.2-8.3,12.4-8.3,12.4c0.2,0-1.3,4.2-1.7,4.6c-3,3.9-8.6,5.5-13.4,5.1
										c-7.3-0.7-10-7.6-10.5-7.7c-3.2-0.6-6.9-2.2-9.2-4.4c-2.4-2.2-3.9-5.4-3.4-8.6c0.5-3.2,2.9-5.6,6.1-5.8
										c-2-2.4-4.6-4.8-5.8-7.6c-1.1-2.9-1.5-6.2-0.4-9.1c1.1-2.9,3.4-4.4,6.6-4.5c-1.2-1.9-2.5-3.8-2.9-6c-0.5-2.2,0-4.7,1.8-6.1
										c1.8-1.4,6.5-1.4,7.6,0.6c-0.7-3.2-0.9-6.7,0.1-9.7c0.3-0.8,0.6-1.5,1-2.3c2.1-3.5,6.9-5.8,10.7-4.2
										c2.5,1.1,4.2,3.5,4.9,6.1c0.8,2.6,0.7,5.3,0.7,8c1.4-2,5-2.4,7-1c2,1.4,3,3.9,2.9,6.3c-0.1,3-1.6,5.8-4,7.6
										c2-1.2,4.7-0.8,6.3,0.9c1.7,1.7,2.3,4.1,2.2,6.4c-0.1,1.7-0.5,3.3-1.1,4.8c-0.2,0.6-0.5,1.2-0.7,1.8c-1,2.4-2.6,5-5,5.6
										c2.3-0.4,4.8-0.7,6.6,0.7C120.3,287.1,120.7,289.6,120.6,291.8z"/>
									<path class="st3" d="M118.9,272.7c-0.1,1.7-0.5,3.3-1.1,4.8c-0.4-0.9-1-1.7-1.7-2.5c-2.3-2.6-6.2-4.5-9.6-4.1
										c1-1.8,2-3.7,2.3-5.7c0.4-2,0-4.3-1.4-5.8c-1.4-1.5-3.8-2-5.3-0.6c1.4-3.5,0.8-7.7-1.4-10.7c-2.2-3-6.1-4.8-9.8-4.5
										c-1.3,0.1-2.6,0.5-3.8,1c0.3-0.8,0.6-1.5,1-2.3c2.1-3.5,6.9-5.8,10.7-4.2c2.5,1.1,4.2,3.5,4.9,6.1c0.8,2.6,0.7,5.3,0.7,8
										c1.4-2,5-2.4,7-1c2,1.4,3,3.9,2.9,6.3c-0.1,3-1.6,5.8-4,7.6c2-1.2,4.7-0.8,6.3,0.9C118.3,268,119,270.4,118.9,272.7z"/>
									<g>
										<polygon class="st7" points="96.2,259 95.7,327 100.4,327.2 										"/>
										<polygon class="st7" points="98,305.1 83.1,295.8 97.9,308.1 										"/>
										<polygon class="st7" points="98.2,298.7 112.9,289 98.1,301.4 										"/>
										<polygon class="st7" points="96.8,285.6 82.6,273.4 96.9,283.3 										"/>
									</g>
								</g>
							</g>
						</g>
						<g>
							<ellipse class="st2" cx="158.8" cy="339.7" rx="65.9" ry="4.4"/>
							<g>
								<g>
									<rect x="181.4" y="326.3" class="st7" width="30.3" height="2.8"/>
									<rect x="203.8" y="328.4" class="st7" width="1.5" height="9.7"/>
									<rect x="192.4" y="328.4" class="st7" width="1.6" height="9.7"/>
								</g>
								<g>
									<g>
										<g>
											<rect x="109.2" y="306.7" class="st11" width="31.6" height="33.1"/>
											<rect x="140.8" y="306.7" class="st4" width="49.8" height="33.1"/>
										</g>
										<polygon class="st23" points="196.9,310.4 105.3,310.4 120.6,284 182.7,284 										"/>
									</g>
									<g>
										<g>
											<g>
												<rect x="112.9" y="318.2" class="st22" width="3.5" height="15.6"/>
												<rect x="118.1" y="318.2" class="st22" width="3.5" height="15.6"/>
											</g>
											<g>
												<rect x="127.2" y="318.2" class="st22" width="3.5" height="15.6"/>
												<rect x="132.3" y="318.2" class="st22" width="3.5" height="15.6"/>
											</g>
										</g>
										<g>
											<g>
												<rect x="147.2" y="318.2" class="st22" width="3.5" height="15.6"/>
												<rect x="152.4" y="318.2" class="st22" width="3.5" height="15.6"/>
											</g>
											<g>
												<rect x="161.5" y="318.2" class="st22" width="3.5" height="15.6"/>
												<rect x="166.6" y="318.2" class="st22" width="3.5" height="15.6"/>
											</g>
										</g>
										<rect x="175" y="318.2" class="st11" width="11.8" height="21.5"/>
										<polygon class="st11" points="138.6,310.5 123.1,285.7 109.1,310.4 										"/>
									</g>
								</g>
							</g>
						</g>
						<g>
							<path class="st28" d="M108.8,345c1-0.8,1.3-2.7,0.4-3.8s-2.5-1.1-3.4-0.1c0.8-1.9-0.1-5-1.5-6.3c-1.4-1.3-3.6-1.5-5.2-0.3
								c-1.2-1.8-4.4-1.7-6.1-0.4c-0.3-2-2.6-3.5-4.4-3.2s-3.2,2.5-2.9,4.5c-0.6-0.5-1.6-1.1-2.3-0.7s-1.2,1.2-1.2,2.1
								c-1.3-0.8-2.5-1.7-4-1.4c-1.4,0.3-2.8,1.3-3.4,2.9c-0.5,1.6,0,3.5,1.3,4.3c-1.4-0.2-3.1,1.4-2.6,2.9L108.8,345z"/>
							<path class="st28" d="M55.7,363.6c0.9-1.4,0.7-3.4-0.5-4.5c-1.2-1.2-3.2-1.4-4.6-0.4c0.7-0.9-0.2-3-0.8-4s-1.9-1.3-2.9-1
								c1.2-2.3,0-5.8-2.3-6.9c-2.3-1.1-5.4,0-6.4,2.3c-1.5-1.6-4.5-2-5.7-0.1c-1.1-1.2-1.6-3.3-3-4.1c-1.4-0.8-3.2-1-4.6-0.3
								c-1.4,0.8-2.1,2.8-1.2,4.1c-1.1-1-2.8-0.3-4.2,0.1c-1.4,0.5-2.5,1.7-2.7,3.1c-1.2-1.7-3.9-2.5-5.9-1.9
								c-2,0.6-3.4,2.6-3.5,4.6s1.3,4.1,3.3,4.8c-4.4-0.8-6.4,3.5-5.2,5.7L55.7,363.6z"/>
							<path class="st28" d="M332.1,338.2c0.5-0.9,0.4-2.1-0.2-3s-1.7-1.3-2.8-1.1c0.3-1.7-0.9-3.9-2.5-4.4s-3.6,0.1-4.4,1.6
								c-1.4-1.1-2.7-2.9-4.5-3.1c-1.8-0.2-3.9,0.9-4,2.6c-0.5-0.7-1.3-1.3-2-0.9s-1.1,1.4-0.9,2.2c-1.5-0.7-3.8-0.4-4.9,0.9
								c-1.1,1.3-1.1,3.4,0,4.7L332.1,338.2z"/>
						</g>
					</g>
				</g>
				<g>
					<g>
						<g>
							<path class="st28" d="M460.5,333.8c0.2,0-1.3,4.7-1.7,5.2c-3.1,4.4-9.2,6.5-14.5,6.1c-8-0.5-11.2-8.2-11.8-8.3
								c-3.5-0.5-7.6-2.3-10.2-4.7s-4.4-6-4-9.5c0.4-3.5,3-6.3,6.5-6.6c-2.2-2.7-5.2-5.2-6.5-8.3c-1.4-3.2-1.9-6.8-0.8-10.1
								c1.1-3.3,3.6-5,7.1-5.3c-1.4-2.1-2.8-4.2-3.4-6.6c-0.6-2.4-0.1-5.3,1.8-6.9c1.9-1.7,7.1-1.8,8.3,0.4
								c-0.9-3.6-1.2-7.6-0.1-11.1c0.3-0.8,0.6-1.6,1-2.3c2.2-4,7.3-6.7,11.6-5c2.8,1.1,4.7,3.8,5.6,6.7c0.9,2.9,0.9,5.9,1,8.9
								c1.4-2.3,5.4-2.8,7.7-1.4c2.3,1.4,3.3,4.3,3.3,6.9c0,3.3-1.6,6.6-4.1,8.7c2.2-1.4,5.1-1,7,0.8c1.9,1.8,2.7,4.5,2.6,7.1
								c0,0.6-0.1,1.2-0.2,1.8c-0.3,2-0.9,3.9-1.6,5.8c-1,2.7-2.6,5.6-5.2,6.4c2.5-0.5,5.1-0.9,7.1,0.6c2,1.5,2.5,4.3,2.4,6.8
								C469.1,331.1,460.5,333.8,460.5,333.8z"/>
							<path class="st3" d="M464.1,291.3c1.9,1.8,2.7,4.5,2.6,7.1c0,0.6-0.1,1.2-0.2,1.8c-0.2-0.3-0.5-0.6-0.8-0.8
								c-3-2.9-8.2-5.1-12.2-3.9c1.4-2.2,2.4-4.7,2.5-7.3c0.1-2.6-0.9-5.3-2.9-7c-2-1.6-4.7-3.4-6.8-1.9c-0.3-3.9-0.8-8.2-3.8-10.7
								c-2.5-2.1-6.2-2.4-9.3-1.4c-0.7,0.2-1.4,0.5-2.1,0.9c0.3-0.8,0.6-1.6,1-2.3c2.2-4,7.3-6.7,11.6-5c2.8,1.1,4.7,3.8,5.6,6.7
								c0.9,2.9,0.9,5.9,1,8.9c1.4-2.3,5.4-2.8,7.7-1.4c2.3,1.4,3.3,4.3,3.3,6.9c0,3.3-1.6,6.6-4.1,8.7
								C459.3,289.1,462.2,289.5,464.1,291.3z"/>
							<g>
								<polygon class="st7" points="440.8,282.3 443,355.8 448.5,355.8 								"/>
								<polygon class="st7" points="444.7,334.4 462,320.3 446,338 								"/>
								<polygon class="st7" points="443,328.7 426,321.5 443,332.1 								"/>
								<polygon class="st7" points="442.4,307.6 456.8,294.7 443,309.7 								"/>
								<polygon class="st7" points="442.4,304 429.4,294.7 441.5,305.4 								"/>
							</g>
						</g>
						<g>
							<path class="st28" d="M515.9,325.7c0.2,0-1.3,4.8-1.7,5.3c-3.2,4.5-9.4,6.6-14.9,6.3c-8.2-0.6-11.4-8.4-12-8.5
								c-3.6-0.5-7.7-2.3-10.5-4.8c-2.7-2.4-4.5-6.1-4-9.7c0.4-3.6,3-6.5,6.7-6.8c-2.3-2.7-5.3-5.3-6.7-8.5c-1.4-3.3-1.9-7-0.8-10.4
								c1.1-3.3,3.7-5.1,7.2-5.4c-1.4-2.1-2.9-4.3-3.5-6.8c-0.6-2.5-0.1-5.4,1.8-7.1c1.9-1.7,7.3-1.8,8.5,0.4
								c-1.1-4.5-1.3-9.4,0.8-13.5c0-0.1,0.1-0.1,0.1-0.2c2.3-4.1,7.5-6.9,11.8-5.1c2.8,1.1,4.8,3.9,5.7,6.8s1,6,1,9.1
								c1.5-2.3,5.5-2.9,7.8-1.4c2.3,1.5,3.4,4.4,3.4,7.1c0,3.4-1.6,6.7-4.2,8.9c2.2-1.4,5.2-1,7.1,0.8c1.9,1.8,2.7,4.6,2.6,7.2
								c0,1.2-0.2,2.4-0.5,3.5c-0.3,1.4-0.8,2.8-1.3,4.2c-1,2.8-2.7,5.8-5.4,6.6c2.5-0.5,5.3-1,7.3,0.6c2,1.5,2.5,4.4,2.5,6.9
								C524.8,323,515.9,325.7,515.9,325.7z"/>
							<path class="st3" d="M522.3,289.5c0,1.2-0.2,2.4-0.5,3.5c-0.8-1.3-1.9-2.4-3.1-3.3c-3-2.2-7.4-3-11-1.9
								c0.9-2.3,1.8-4.7,2.1-7.2c0.3-2.5-0.2-5.2-1.8-7.1c-1.6-1.9-4.3-3.4-6.6-2.3c1.1-5-1.2-10.6-5.6-13.4c-2.7-1.7-6-2.2-9-1.7
								c0-0.1,0.1-0.1,0.1-0.2c2.3-4.1,7.5-6.9,11.8-5.1c2.8,1.1,4.8,3.9,5.7,6.8s1,6,1,9.1c1.5-2.3,5.5-2.9,7.8-1.4
								c2.3,1.5,3.4,4.4,3.4,7.1c0,3.4-1.6,6.7-4.2,8.9c2.2-1.4,5.2-1,7.1,0.8C521.5,284.1,522.3,286.8,522.3,289.5z"/>
							<g>
								<polygon class="st7" points="496.5,274.6 498.1,352.4 503.4,352.4 								"/>
								<polygon class="st7" points="499.9,327.2 483,317.1 499.9,330.7 								"/>
								<polygon class="st7" points="499.9,319.9 516.2,308.2 499.9,322.9 								"/>
								<polygon class="st7" points="498.1,304.9 481.8,291.4 498.1,302.3 								"/>
							</g>
						</g>
					</g>
					<g>
						<path class="st28" d="M730.3,340.3c0,0,7-1.4,7.9-10.3c0.2-1.9,0.1-4.2-1.4-5.5c-1.6-1.5-4.1-1.2-6.2-0.9
							c2.5,0,4.2-2.4,5.3-4.7c0.9-1.8,1.8-3.7,2-5.7c0.3-2-0.1-4.2-1.5-5.7c-1.3-1.5-3.6-2.1-5.4-1.2c2.2-1.4,3.6-3.9,3.9-6.4
							c0.2-2.1-0.4-4.4-2-5.7c-1.6-1.3-4.8-1.2-6.1,0.4c0.2-2.3,0.4-4.7,0-7s-1.7-4.6-3.8-5.7c-3.2-1.7-7.4,0-9.4,3
							s-2.3,6.8-1.8,10.4c-0.8-1.8-4.8-2.2-6.4-1c-1.6,1.1-2.2,3.3-1.9,5.3s1.2,3.7,2.1,5.5c-2.7,0-4.8,1.1-5.9,3.6s-1,5.4-0.2,8
							c0.8,2.6,2.9,4.8,4.4,7c-2.8,0-5,1.9-5.6,4.7s0.4,5.7,2.3,7.7s4.9,3.8,7.6,4.5c0.5,0.1,2.3,6.3,8.5,7.4
							c4.1,0.7,9-0.4,11.8-3.6C728.9,343.8,730.4,340.2,730.3,340.3z"/>
						<g>
							<polygon class="st7" points="719.1,298.5 714.9,356.1 719.2,356.5 							"/>
							<polygon class="st7" points="717.9,339.5 732.5,329.8 718.6,342.4 							"/>
							<polygon class="st7" points="717.1,334.9 704.4,327.9 716.8,337.6 							"/>
							<polygon class="st7" points="718.3,318.4 730.6,309.4 718.6,320.1 							"/>
							<polygon class="st7" points="718.6,315.6 709.2,307.2 717.8,316.6 							"/>
						</g>
					</g>
					<g>
						<g>
							<path class="st12" d="M750,354.8V500H0V384.5C262.5,366.2,501.5,334.1,750,354.8z"/>
							<path class="st5" d="M750,354.8v26.6c-64.1-5.6-177.4-14.5-267-15.1c-114.6-0.7-380.9,17.4-483,25v-6.8
								C262.5,366.2,501.5,334.1,750,354.8z"/>
						</g>
						<g>
							<ellipse class="st29" cx="435.4" cy="391" rx="6" ry="1.6"/>
							<ellipse class="st29" cx="471.3" cy="405.3" rx="6" ry="1.6"/>
							<ellipse class="st29" cx="522.3" cy="387.9" rx="6" ry="1.6"/>
							<ellipse class="st29" cx="658.8" cy="390.6" rx="6" ry="1.6"/>
							<ellipse class="st29" cx="453.3" cy="444.6" rx="6" ry="1.6"/>
							<ellipse class="st29" cx="363.8" cy="381.7" rx="6" ry="1.6"/>
							<ellipse class="st29" cx="227.4" cy="425.1" rx="6" ry="1.6"/>
							<ellipse class="st29" cx="202" cy="400.4" rx="6" ry="1.6"/>
							<ellipse class="st29" cx="150.7" cy="394.1" rx="6" ry="1.6"/>
							<ellipse class="st29" cx="306.6" cy="384.5" rx="6" ry="1.6"/>
							<ellipse class="st29" cx="400.3" cy="420" rx="6" ry="1.6"/>
						</g>
					</g>
					<g>
						<g>
							<ellipse class="st15" cx="609.9" cy="370.1" rx="73" ry="8"/>
							<g>
								<path class="st28" d="M704.1,255.3c-1.5,4.7-3.9,9.1-7,12.8c-8.5,10.3-21.7,15.9-34,13c2,7.4-0.7,16.2-6.3,20.6
									c-5.7,4.5-17.7,4-23.3-0.7c-8.8,11.9-23.7,17.7-37.1,14.5c-13.5-3.2-24.8-15.4-28.4-30.2c-11.3,8.7-28.9,4.2-35.8-9.1
									c-6.8-13.3-1.4-32.6,11-39.2c-13.8-1.5-30.7-22.2-30-37.7s10.9-27.6,24.8-27.7c-7-7.3-8.1-20.6-2.3-29.2
									c5.8-8.5,17.9-11.6,26-6c0.6-8.8,3.4-17.2,7.8-24.4c6.8-11.2,17.3-19.6,29.2-22.2c19.5-4.3,38.7,13,47.5,32.9
									c7-6,17.9-5.4,24.4,1.3c6.5,6.7,7.3,19.1,2.5,27.4c11.1,0.6,23.7,5.7,27.2,17.5c2.1,7,0.3,14.9-3.1,21.3s-5.1,11.1-10,16.1
									C702.2,215.3,709.8,237.4,704.1,255.3z"/>
								<path class="st3" d="M704.1,255.3c-1.5,4.7-3.9,9.1-7,12.8c0.3-6.1-0.6-12.2-2.5-18c-4.3-13.2-13-27-25.6-32.9
									c3.9-6.2,7.8-12.5,9.7-19.6s1.6-15.1-2.6-21.1c-4.2-6-12.1-10.3-18.5-6.8c1.7-4.8,3.1-9.8,2.8-14.9
									c-0.3-5.1-2.6-10.3-7-12.9c-3.9-2.4-8.9-2.4-13.1-0.8c-4.3,1.5-7.2,3.9-10.4,7.2c-1.1-17.9-14.7-34.4-32.1-38.9
									c-9.4-2.4-19.6-1.3-28.5,2.7c6.8-11.2,17.3-19.6,29.2-22.2c19.5-4.3,38.7,13,47.5,32.9c7-6,17.9-5.4,24.4,1.3
									c6.5,6.7,7.3,19.1,2.5,27.4c11.1,0.6,23.7,5.7,27.2,17.5c2.1,7,0.3,14.9-3.1,21.3s-5.1,11.1-10,16.1
									C702.2,215.3,709.8,237.4,704.1,255.3z"/>
								<g>
									<polygon class="st7" points="607.2,156.6 601.1,373.3 618.7,373.3 									"/>
									<path class="st7" d="M609.9,281.8c1.5-2.7,48.1-33.6,48.1-33.6l-48.4,23.8L609.9,281.8z"/>
									<path class="st7" d="M609.8,238.5c1.1-2.5,33.1-35.7,33.1-35.7l-33.3,26.5L609.8,238.5z"/>
									<path class="st7" d="M606.5,294.9c-1.4-2.7-45.6-33.6-45.6-33.6l45.9,23.8L606.5,294.9z"/>
									<path class="st7" d="M606.6,226.3c-1-2.5-31.4-35.7-31.4-35.7l31.6,26.5L606.6,226.3z"/>
								</g>
							</g>
						</g>
					</g>
				</g>
				<g>
					<path class="st24" d="M750,500H0v-42.4c275.3-24.4,429.4,30.9,750,24.6V500z"/>
					<g>
						<g>
							<g>
								<g>
									<g>
										<path class="st19" d="M117.8,416.2c-3.1-1.4-6.1-3.1-8.8-5c-0.8-0.6-1.6-1.5-1.1-2.3c0.3-0.4,0.9-0.6,1.5-0.4
											c0.5,0.1,1,0.5,1.4,0.8c1.6,1.2,3.2,2.4,4.9,3.6c-3.5-2.4-6.3-5.8-8-9.7c-0.3-0.7-0.5-1.5,0-2.1c0.4-0.5,1.1-0.6,1.7-0.4
											c0.6,0.2,1.1,0.6,1.5,1c2.8,2.7,4.9,6,6,9.6c0.1-1.9-0.2-4.5,1.5-5.5c0.6-0.3,1.3,0.5,1.5,1.1c0.3,0.6,0.3,1.3,0.2,1.9
											C120.1,411.3,119.3,413.9,117.8,416.2z"/>
										<g>
											<path class="st18" d="M117.6,415.7c5.3,25.5-0.2,52.8-14.9,74.7"/>
											<path class="st18" d="M121.1,464.7c-3.1,2-6.5,4.9-8.8,7.8"/>
											<path class="st18" d="M112.7,435.6c2.8,2.9,5.1,6.3,6.5,10.1"/>
										</g>
										<path class="st19" d="M114,437c-4.3-0.4-8.5-1.1-12.6-2.3c-1.2-0.3-2.6-1.1-2.3-2.3c0.2-0.6,0.9-1.1,1.5-1.1
											s1.4,0.1,2,0.3c2.4,0.7,4.8,1.5,7.3,2.2c-5.2-1.4-10-4.3-13.6-8.2c-0.6-0.7-1.3-1.6-1-2.5c0.3-0.7,1.1-1.1,1.9-1.1
											s1.5,0.3,2.2,0.6c4.5,2,8.4,5.1,11.3,8.8c-0.8-2.3-2.2-5.2-0.7-7c0.5-0.6,1.7,0.1,2.3,0.7c0.6,0.6,0.9,1.4,1.1,2.2
											C114.5,430.4,114.7,433.7,114,437z"/>
										<path class="st19" d="M120.4,465.4c0.8-4.1,2.3-8.2,4.4-11.9c0.4-0.7,1-1.4,1.8-1.3c0.6,0.1,1,0.7,1,1.3s-0.3,1.2-0.6,1.7
											c-1.1,2.2-2.3,4.3-3.4,6.5c2.8-4.7,7.8-8.1,13.3-9.3c1.1-0.2,2.7-0.1,3,1c0.2,0.8-0.5,1.5-1.2,2
											c-4.3,3.4-9.2,6.2-14.3,8.3c2.7-1,5.7-1.3,8.6-0.9c0.8,0.1,1.5,0.3,2.1,0.8c0.6,0.5,0.9,1.3,0.6,1.9
											c-0.3,0.8-1.3,1-2.2,1.2C129.2,467.5,124.5,467.1,120.4,465.4z"/>
									</g>
									<g>
										<path class="st33" d="M117.8,454.4c3.5-7,10.5-12.2,18.4-13.7C132.9,448.2,126.1,453,117.8,454.4z"/>
										<path class="st0" d="M133.5,442.6c-5.5,3.5-11,7.2-15.8,11.5"/>
									</g>
									<g>
										<path class="st33" d="M117.1,457.3c-1.1-6.7-5.4-12.8-11.4-16.3C107.1,447.4,111.4,453.8,117.1,457.3z"/>
										<path class="st0" d="M107.1,442.8c3.6,4.6,6.9,9.4,9.9,14.4"/>
									</g>
									<g>
										<path class="st33" d="M119.7,433.8c1.4-7.7,5.9-14.7,12.4-19.3C132.1,422.5,126.9,430.1,119.7,433.8z"/>
										<path class="st0" d="M130.4,417.2c-3.3,5.6-6.8,11.1-10.4,16.5"/>
									</g>
									<g>
										<path class="st33" d="M119.1,427.9c-2.4-7.3-7.9-13.6-15-17.1C106.4,417.8,112.4,424.5,119.1,427.9z"/>
										<path class="st0" d="M106.8,413.8c4.1,4.7,8.2,9.4,12.3,14.1"/>
									</g>
								</g>
								<g>
									<g>
										<path class="st10" d="M150,433.4c-9.6,25.2-26.6,47.8-48.5,64.5"/>
										<g>
											<path class="st19" d="M141.1,429.7c-2.9,1-6.1,1-9.2,1.6c-3.1,0.5-6.2,1.8-7.6,4.4c-0.9,1.7-1,3.8-0.7,5.8
												c0.3,1.9,1,4,2.6,5.3c2,1.7,5,1.8,7.5,1.3c5.3-0.9,10.1-3.8,13.4-7.9c-0.2,3.1-0.3,6.2,0.2,9.4c0.6,3.1,2,6.3,4.5,8.5
												s6.2,3.4,9.1,2.4c3.5-1.2,5.1-5.1,4.9-8.7s-2-7.2-3.4-10.5c3.4,3.5,8.8,5.1,13.2,3.9s7.7-5.2,7.9-9.7
												c0.3-4.5-2.5-9.3-6.7-11.8s-9.7-2.4-14,0c1.6-2.1,3.2-4.3,4.3-6.7c1-2.5,1.4-5.3,0.5-8c-0.9-2.7-3.3-5.1-6.1-5.6
												c-2.3-0.4-4.5,0.4-6.3,1.5c-4.6,2.7-7.6,7.6-8.4,12.8c0.3-4.8-3.1-9.9-7.9-11.9c-4.8-2-10.6-0.6-13.4,3.2
												c-2.8,3.8-2.4,9.6,1,13.6C130,426.8,135.8,428.2,141.1,429.7z"/>
											<g>
												<path class="st1" d="M153.9,429.3c4-1.8,8.3-3.1,12.8-3.7c-3.6,1.2-7.1,2.5-10.7,3.8c6.5-1.3,13.3-1.8,20.1-1.7
													c-6.1,0.7-15.8,1.8-22,2.4c7.6-0.1,18.9,0.5,26.3,2.7c-7.7-1.3-17.8-1.5-25.5-1.5c6.4,1.5,15,2.7,21.4,4.2
													c-6.4-0.7-15-1.8-21.4-3.2c5.3,1.9,12.7,3.8,18,5.6c-5.2-1.5-12.4-3.2-17.5-4.7c4.8,3.1,11.7,6.3,16.8,8.9
													c-6.2-2.5-12.3-5.4-18.3-8.5C153.7,432.2,153.7,430.8,153.9,429.3z"/>
												<path class="st1" d="M154,434.4c3.1,3.3,5.4,7.3,6.8,11.4c-1.6-3.9-4-7.6-7-10.6c3.9,5.8,6.5,12.3,7.7,18.8
													c-2.3-6.3-5.1-12.5-8.5-18.5c2.8,7.3,5.6,14.6,7.1,22c-2.7-7.2-5.4-14.4-8.1-21.7c1.4,6.8,3.2,13.6,5.4,20.2
													c-2.3-6-4.2-12.2-5.6-18.3c0.7,6.4,1.9,12.7,3.6,18.9c-2.4-6.2-4.4-13.7-4.9-20.1c-0.8,4.9-0.9,11.2,0.2,16.2
													c-2-5.9-2.4-12.1-1.1-17.9C151,434.9,152.4,434.7,154,434.4z"/>
												<path class="st1" d="M145,430.9c-5,0.6-9.9,1.6-14.6,3.1c4.7-1,9.4-1.7,14.2-2.2c-5.7,1.4-11.1,3.3-16.2,5.8
													c5.1-2.4,10.6-4,16.3-4.8c-5.7,2.7-11.4,5.3-17,7.9c5.4-2,10.8-4,16.3-6c-4.6,3.7-9.7,6.8-15.1,9.4
													c6-2.6,11.7-5.8,17-9.6c-3,4.6-7.8,7.9-12.4,11.1c4.2-1.8,8-4.3,11.1-7.4c-1.2,2.3-2.9,4.4-4.8,6.1
													c2.7-2.1,5-4.6,6.8-7.4c0.3-0.5,0.7-1.1,0.8-1.7C147.6,433.7,146.3,432.1,145,430.9z"/>
												<path class="st1" d="M145.4,429.6c-4.1-1.3-8-3.1-11.7-5.3c3,1.7,7.7,3.5,10.9,4.3c-5.5-2.7-12-7.3-15.9-12
													c4,4,11.3,8.6,16.2,11.4c-4.7-4.4-11.4-11-15.4-16.1c4.2,4.1,11.4,11.1,15.5,15.1c-3.1-4.3-9.2-11.6-12.3-15.9
													c3.8,4.2,9.9,11.2,13,15.8c-2.3-4.6-6-11.2-8-16.5c2.8,4.8,6.2,11,8.2,15.6c-1.3-4.9-3.3-10-4.6-14.9
													c1.9,4.7,3.7,9.4,5.6,14.1c0.2,0.6,0.4,1.1,0.4,1.7C147.3,428.4,145.5,429.2,145.4,429.6z"/>
												<path class="st1" d="M152.9,428.2c3.9-1.9,7.5-4.4,10.7-7.3c-2.8,2.1-5.9,3.9-9.1,5.4c3.6-3.1,6.8-6.6,9.5-10.5
													c-2.8,3.4-8,8-11.3,10.9c3.1-4.8,7.9-11.1,11-15.9c-3.4,3.8-9.2,11.1-12,15.2c2-5.2,6.7-13.9,10.7-17.9
													c-4.4,3.5-9.8,12.1-11.9,17.3c1.1-3.9,4.8-11.6,7.2-14.8c-3,3.2-6.9,10.3-8.3,14.5c0.6-3.7,3.1-10.5,4.2-14
													c-2.4,4.9-4.2,10.1-5.5,15.5C149.2,427.3,150.5,427.8,152.9,428.2z"/>
											</g>
											<g class="st8">
												<path class="st26" d="M151.1,436.7c-1.8,0.3-3.8-0.5-5.2-1.9c-1.5-1.5-2.2-3.7-1.7-5.6c0.8-3.1,4.9-4.7,8.1-3
													c4,2.1,3.6,8.1,0.3,10C152.1,436.5,151.6,436.7,151.1,436.7z"/>
											</g>
										</g>
									</g>
									<g>
										<path class="st33" d="M126.2,474.9c4.4-5.6,11-9.6,18.1-11.1c7.1-1.5,14.8-0.5,21.3,2.8
											C153.6,473.4,140.1,476.7,126.2,474.9z"/>
										<path class="st0" d="M161,467.1c-11.5,0.1-22.9,2.5-33.4,6.8"/>
									</g>
								</g>
							</g>
							<g>
								<g>
									<g>
										<path class="st31" d="M85.7,433.2c-7.4,5.9-24.8,7.2-24.8,7.2s4.1-16,11.5-21.8c7.4-5.9,19.6-8,21.7-4.6
											C95.7,416.6,93.1,427.3,85.7,433.2z"/>
										<g>
											<path class="st0" d="M92.6,414.5c-10,9-20.5,17.6-31.3,25.8"/>
											<path class="st0" d="M86.6,413.5c0.3,1.8,0.7,3.6,1,5.5c1.6,0.5,3.2,0.9,4.8,1.3"/>
											<path class="st0" d="M79.9,416.8c0.7,2.4,1.3,4.8,1.9,7.2c2.5,0.8,5.1,1.5,7.7,2.1"/>
											<path class="st0" d="M84.8,432.5c-2.9-1.2-6.1-2.4-9.1-3.6c-0.9-2.8-2-5.5-3.2-8.1"/>
											<path class="st0" d="M68.3,427.2c0.7,2.1,1.3,4.2,2,6.3c2.2,0.8,4.4,1.6,6.5,2.6"/>
											<path class="st0" d="M64.5,432.3c0.6,1.4,1,3,1.2,4.5c1.5,0.5,3.2,1.1,4.6,1.9"/>
										</g>
									</g>
									<g>
										<path class="st31" d="M66.4,399.2c3,8.9-1.7,25.8-1.7,25.8s-13.6-9.3-16.6-18.2c-3-8.9-0.9-21.2,3-22
											C54.2,384.1,63.4,390.2,66.4,399.2z"/>
										<g>
											<path class="st0" d="M51.1,386.4c5.1,12.5,9.6,25.3,13.6,38.2"/>
											<path class="st0" d="M48.2,391.7c1.8,0.3,3.7,0.6,5.5,0.9c1-1.4,1.9-2.7,2.9-4.1"/>
											<path class="st0" d="M49,399c2.5,0.1,4.9,0.3,7.4,0.7c1.6-2.1,3.1-4.3,4.6-6.6"/>
											<path class="st0" d="M65.4,399.8c-2.1,2.4-4.3,4.9-6.4,7.3c-2.9-0.1-5.8,0-8.7,0.2"/>
											<path class="st0" d="M54.8,413.6c2.2,0.1,4.4,0.2,6.6,0.3c1.5-1.8,3-3.6,4.7-5.2"/>
											<path class="st0" d="M58.3,418.8c1.6-0.1,3.1,0,4.7,0.4c0.9-1.2,2.1-2.6,3.3-3.6"/>
										</g>
									</g>
									<g>
										<g>
											<g>
												<path class="st21" d="M82.5,385.4c0.4,8.9-3.1,10.8-7.6,9s-8.3-6.5-8.7-15.4c-0.3-7,4.3-13.5,6.3-15.9
													c0.4-0.5,1.2-0.4,1.5,0.1C76.1,366.8,82.1,378,82.5,385.4z"/>
												<path class="st21" d="M75.2,381.9c-5.8,6.8-4.1,10.4,0.5,11.7c4.6,1.4,10.5,0,16.3-6.8c4.8-5.7,4.8-14.2,4.7-16.9
													c0-0.4-0.4-0.7-0.8-0.5C92.7,370.6,80.2,376,75.2,381.9z"/>
												<path class="st25" d="M78.7,387.6c2.2,8.6-0.8,11.2-5.6,10.3s-9.4-4.7-11.6-13.3c-1.7-6.8,1.5-14.1,3-16.9
													c0.3-0.6,1.1-0.7,1.5-0.2C68.7,370.7,76.9,380.5,78.7,387.6z"/>
												<path class="st25" d="M77.8,387.1c-7.2,5.3-6.4,9.2-2.2,11.6c4.2,2.4,10.3,2.3,17.4-3c6-4.4,7.9-12.8,8.4-15.4
													c0.1-0.4-0.3-0.8-0.7-0.7C97.3,380.1,84,382.5,77.8,387.1z"/>
												<path class="st25" d="M87.1,385.1c-3.2,10.1-7.8,12.8-12.1,11.5s-6.6-6.1-3.4-16.3c2.6-8.2,10.7-16.5,13.7-19.4
													c0.5-0.5,1.3-0.2,1.5,0.5C87.7,365.5,89.7,376.9,87.1,385.1z"/>
												<g>
													<path class="st20" d="M80.1,389.9c-1.3,4.1-5.2,8.2-5.2,8.2s-0.9-5.6,0.4-9.7s2.9-5.5,4.2-5
														C80.9,383.8,81.4,385.9,80.1,389.9z"/>
													<path class="st20" d="M85.1,396.1c-3.7,2.1-9.4,2.3-9.4,2.3s3.2-4.7,7-6.7c3.7-2.1,5.9-1.9,6.5-0.7
														S88.8,394,85.1,396.1z"/>
													<path class="st20" d="M72.1,388.3c1.8,3.9,1.7,9.5,1.7,9.5s-4.4-3.6-6.2-7.4s-1.5-6-0.3-6.6
														C68.5,383.3,70.3,384.4,72.1,388.3z"/>
												</g>
											</g>
											<path class="st31" d="M65.5,394.1c2.3,3,8.3,7.4,8.3,7.4s8.7-0.3,12.2-1.7c-0.2-0.8-1.3-1.4-2.1-1.4
												c-0.9,0-1.7,0.3-2.6,0.4c-0.8,0.2-1.8,0.2-2.5-0.3c-0.8-0.5-1.1-1.5-1.5-2.4s-0.9-1.8-1.9-2c-1.4-0.2-2.4,1.3-3.8,1.5
												c-1.1,0.2-2.1-0.6-3-1.2C67.9,393.9,66.5,393.6,65.5,394.1z"/>
										</g>
										<path class="st10" d="M74.5,399c-12.6,29.3-19.5,61.1-20.2,93"/>
									</g>
								</g>
								<g>
									<g>
										<path class="st31" d="M28.7,436.2c8.7,3.5,18.5,18,18.5,18s-15.9,4.3-24.6,0.8c-8.7-3.5-16.7-13.1-14.7-16.6
											C9.3,435.7,19.9,432.7,28.7,436.2z"/>
										<g>
											<path class="st0" d="M9,439.5c12.8,4.3,25.5,9.1,37.9,14.4"/>
											<path class="st0" d="M11.2,445.2c1.4-1.2,2.8-2.4,4.3-3.6c-0.4-1.6-0.8-3.2-1.2-4.9"/>
											<path class="st0" d="M17.3,449.4c1.7-1.8,3.5-3.5,5.3-5.2c-0.5-2.6-1.3-5.2-2-7.7"/>
											<path class="st0" d="M28.5,437.4c0.4,3.2,0.9,6.5,1.4,9.6c-1.9,2.2-3.8,4.4-5.5,6.8"/>
											<path class="st0" d="M32.1,454.3c1.5-1.6,3-3.2,4.5-4.8c-0.4-2.3-0.8-4.6-0.9-6.9"/>
											<path class="st0" d="M38.4,455.1c0.9-1.2,2.1-2.4,3.3-3.3c-0.3-1.5-0.6-3.3-0.6-4.9"/>
										</g>
									</g>
									<g>
										<g>
											<g>
												<path class="st21" d="M40.5,414.9c6.7,8.5,4.5,12.8-1.2,14.2c-5.7,1.4-12.8-0.6-19.5-9.1c-5.3-6.7-5.2-16.4-4.9-20.2
													c0.1-0.8,0.9-1.3,1.6-0.9C21,401,34.9,407.8,40.5,414.9z"/>
												<path class="st21" d="M30.8,416.6c-0.9,10.8,3.2,13.2,8.8,11.3c5.6-1.9,10.4-7.5,11.3-18.3c0.8-9-5.2-17.5-7.3-20.1
													c-0.3-0.4-0.9-0.4-1.2,0.1C40.2,393.2,31.6,407.2,30.8,416.6z"/>
												<path class="st25" d="M38.3,419.9c8.3,7,7,11.7,1.7,14.2c-5.3,2.5-12.6,2-20.9-5c-6.5-5.5-8.4-15.1-8.9-18.8
													c-0.1-0.8,0.6-1.4,1.4-1.2C16.4,410.1,31.4,414,38.3,419.9z"/>
												<path class="st25" d="M37,419.9c-3.4,10.3,0.1,13.6,6,13c5.8-0.6,11.8-4.9,15.2-15.2c2.8-8.6-1.1-18.2-2.5-21.2
													c-0.2-0.5-0.8-0.6-1.2-0.2C51.4,399.3,39.9,411,37,419.9z"/>
												<path class="st25" d="M44.9,411.5c4,12.3,1.3,18.2-3.9,19.9c-5.2,1.7-10.8-1.5-14.8-13.8c-3.2-10-1-23.9,0-28.9
													c0.2-0.8,1.2-1.2,1.8-0.6C31.6,391.5,41.7,401.5,44.9,411.5z"/>
												<g>
													<path class="st20" d="M41.3,421.1c1.6,4.9,0.6,11.8,0.6,11.8s-4.8-5-6.4-9.9c-1.6-4.9-1-7.5,0.7-8
														S39.7,416.2,41.3,421.1z"/>
													<path class="st20" d="M50.6,423.7c-2.3,4.7-7.7,8.9-7.7,8.9s-0.1-6.9,2.2-11.6c2.3-4.7,4.5-6.1,6-5.3
														C52.6,416.4,52.8,419,50.6,423.7z"/>
													<path class="st20" d="M32.2,425.2c4.5,2.6,8.4,8.3,8.4,8.3s-6.9-0.4-11.4-3c-4.5-2.6-5.7-4.9-4.9-6.3
														C25.1,422.7,27.7,422.6,32.2,425.2z"/>
												</g>
											</g>
											<path class="st31" d="M29.8,435.5c4.4,1.4,13.4,1.5,13.4,1.5s8.4-6.4,10.9-10.3c-0.8-0.7-2.2-0.5-3.1,0.1
												c-0.9,0.6-1.5,1.4-2.2,2.2c-0.7,0.8-1.6,1.5-2.7,1.5c-1.2,0-2.2-0.7-3.1-1.4c-1-0.6-2.2-1.2-3.3-0.7
												c-1.5,0.7-1.5,3-2.7,4.2c-1,0.9-2.5,0.9-3.8,0.9C31.9,433.7,30.4,434.4,29.8,435.5z"/>
										</g>
										<path class="st10" d="M41.8,435c5.2,15.9,9.3,32.2,12.1,48.8"/>
									</g>
								</g>
							</g>
							<g>
								<path class="st28" d="M156.9,492.9c0.1,4.7-5.5,12.1-9.8,12.1c-59.2,0-102.2,0.7-162.9,0.7c-4.2-3.5-6.4-7.2-5.2-12.5
									c1.2-5.3,5.9-9.7,11.2-11c-4.4-3.8-5-11.1-1.4-15.6c3.7-4.5,11.7-3.9,16.2-0.3c-0.9-3.3-0.7-6.9,0.5-10.1
									c1.4-3.7,3.9-7,7.3-9.1c6.3-4,14.7-3.8,21.2-0.3c6.5,3.6,12.6,10.2,14.2,17.4c3.9-4.7,13.7-6.2,19.6-4.9
									c-1.1-6.6,4.1-13.4,10.7-14.9c6.5-1.6,13.7,1.5,17.9,6.7c4.2,5.2,4.2,12.5,3.6,19.1c5.7-6,17.2-3.9,22.7,2.2
									c2.6-6.5,11.1-9.8,17.4-6.8c6.3,3,9.7,13.6,6.3,19.6c4.5-1,9.6,2.3,10.4,6.8C156.8,492.3,156.9,492.6,156.9,492.9z"/>
								<path class="st9" d="M156.9,492.9c-0.6-0.6-1.3-1.2-2.1-1.7c-4.2-2.7-9.7-2.6-14-0.2c1-3.7,0.9-7.7-0.2-11.3
									c-0.9-2.8-2.8-5.7-5.8-6.3c-2.1-0.4-4.4,0.5-5.9,2.1c-1.6,1.5-1.8,3.8-2.6,5.8c-4.1-4.5-9.9-7.3-16-7.9s-12.5,0.3-17.4,3.9
									c1.9-4.9,2.4-10.3,1.4-15.5c-0.5-2.5-1.4-5-3.2-6.8c-2.7-2.7-7.2-3.3-10.7-1.8s-6.2,4.7-7.5,8.3c-1.3,3.6-1.5,7.7-0.9,11.5
									c-4.8-2.8-10.6-3.9-16.1-3.1c-5.5,0.8-10.1,1.9-14,5.9c-0.6-9.3-7.1-17.9-15.9-21.2c-6.6-2.4-14.1-1.7-20.3,1.6
									c1.4-3.7,3.9-7,7.3-9.1c6.3-4,14.7-3.8,21.2-0.3c6.5,3.6,12.6,10.2,14.2,17.4c3.9-4.7,13.7-6.2,19.6-4.9
									c-1.1-6.6,4.1-13.4,10.7-14.9c6.5-1.6,13.7,1.5,17.9,6.7c4.2,5.2,4.2,12.5,3.6,19.1c5.7-6,17.2-3.9,22.7,2.2
									c2.6-6.5,11.1-9.8,17.4-6.8c6.3,3,9.7,13.6,6.3,19.6c4.5-1,9.6,2.3,10.4,6.8C156.8,492.3,156.9,492.6,156.9,492.9z"/>
							</g>
						</g>
						<g>
							<g>
								<g>
									<g>
										<path class="st31" d="M314.6,460c-5.4,8.2-22.3,15.1-22.3,15.1s-1.1-17.1,4.3-25.3s16.8-14.3,20-11.6
											C319.1,440.4,320,451.8,314.6,460z"/>
										<g>
											<path class="st0" d="M315.3,439.3c-7,12.2-14.6,24.1-22.7,35.7"/>
											<path class="st0" d="M309,440.3c0.9,1.7,1.8,3.4,2.7,5.1c1.8-0.1,3.5-0.2,5.2-0.2"/>
											<path class="st0" d="M303.5,445.6c1.5,2.1,2.9,4.3,4.2,6.5c2.8,0,5.6-0.2,8.3-0.5"/>
											<path class="st0" d="M313.5,459.6c-3.3-0.2-6.8-0.4-10.1-0.6c-1.8-2.4-3.7-4.8-5.8-7"/>
											<path class="st0" d="M295.3,459.8c1.3,1.9,2.7,3.7,4,5.6c2.4,0,4.9,0.2,7.3,0.5"/>
											<path class="st0" d="M293.2,466c1.1,1.2,2,2.6,2.7,4.1c1.6,0,3.5,0.1,5.1,0.4"/>
										</g>
									</g>
									<g>
										<path class="st31" d="M277.3,441.7c7.7,6.1,13.2,23.5,13.2,23.5s-17.2-0.4-24.9-6.4c-7.7-6.1-12.8-18-9.9-20.9
											C258.1,435.5,269.6,435.6,277.3,441.7z"/>
										<g>
											<path class="st0" d="M256.7,439.2c11.6,8,22.8,16.6,33.6,25.6"/>
											<path class="st0" d="M257.1,445.5c1.8-0.8,3.5-1.5,5.3-2.3c0.1-1.8,0.1-3.5,0.2-5.2"/>
											<path class="st0" d="M262,451.5c2.2-1.3,4.5-2.5,6.8-3.6c0.3-2.8,0.3-5.6,0.3-8.3"/>
											<path class="st0" d="M276.8,442.8c-0.5,3.3-1,6.8-1.5,10c-2.6,1.6-5.1,3.3-7.5,5.1"/>
											<path class="st0" d="M275.4,460.9c2-1.2,3.9-2.3,5.9-3.5c0.2-2.4,0.6-4.9,1.1-7.2"/>
											<path class="st0" d="M281.4,463.5c1.3-1,2.8-1.7,4.3-2.3c0.1-1.6,0.4-3.5,0.8-5.1"/>
										</g>
									</g>
									<g>
										<g>
											<g>
												<path class="st21" d="M285.3,418c5.7,9.7,2.9,13.9-3.2,14.6c-6.1,0.7-13.1-2.3-18.9-12.1c-4.5-7.7-3.1-17.7-2.3-21.6
													c0.2-0.8,1.1-1.2,1.8-0.8C267.1,400.9,280.5,409.9,285.3,418z"/>
												<path class="st21" d="M275.1,418.4c-2.5,11,1.5,14.1,7.5,12.9c6-1.2,11.8-6.3,14.2-17.3c2-9.2-3-18.8-4.8-21.8
													c-0.3-0.5-0.9-0.5-1.3-0.1C288,395.5,277.2,408.8,275.1,418.4z"/>
												<path class="st25" d="M282.4,422.8c7.6,8.4,5.6,13-0.2,14.9c-5.8,1.9-13.3,0.4-20.9-8c-6-6.6-6.6-16.7-6.6-20.7
													c0-0.8,0.8-1.4,1.6-1.1C261.1,409.8,276.1,415.9,282.4,422.8z"/>
												<path class="st25" d="M281.1,422.7c-4.9,10.2-1.7,14.1,4.4,14.2s12.9-3.4,17.8-13.6c4.1-8.5,1.3-19,0.3-22.3
													c-0.2-0.5-0.8-0.7-1.2-0.4C298.8,403.3,285.3,413.9,281.1,422.7z"/>
												<path class="st25" d="M290.4,415c2.4,13.3-1.2,19-6.8,20c-5.6,1-11-3-13.4-16.3c-2-10.7,2.3-24.9,4-29.9
													c0.3-0.8,1.4-1,1.9-0.4C279.4,392.6,288.4,404.3,290.4,415z"/>
												<g>
													<path class="st20" d="M285.4,424.6c1,5.3-1,12.2-1,12.2s-4.3-5.8-5.3-11.1c-1-5.3,0-7.8,1.8-8.2
														C282.6,417.2,284.4,419.2,285.4,424.6z"/>
													<path class="st20" d="M294.5,428.5c-3,4.5-9.2,8.1-9.2,8.1s0.9-7.2,3.9-11.7c3-4.5,5.4-5.6,6.9-4.7
														C297.6,421.3,297.5,424,294.5,428.5z"/>
													<path class="st20" d="M275.3,427.5c4.3,3.3,7.5,9.7,7.5,9.7s-7.1-1.4-11.4-4.6c-4.3-3.3-5.3-5.8-4.2-7.2
														C268.3,424,271,424.2,275.3,427.5z"/>
												</g>
											</g>
											<path class="st31" d="M271.4,437.8c4.4,2,13.7,3.4,13.7,3.4s9.6-5.5,12.7-9.2c-0.8-0.8-2.2-0.8-3.2-0.3
												c-1,0.5-1.8,1.3-2.6,2c-0.9,0.7-1.9,1.3-3,1.2c-1.2-0.1-2.1-1-3.1-1.8c-0.9-0.8-2.1-1.5-3.3-1.1c-1.7,0.5-1.9,2.9-3.4,4
												c-1.1,0.8-2.7,0.6-4,0.4C273.9,436.2,272.3,436.7,271.4,437.8z"/>
										</g>
										<path class="st10" d="M284.3,439.6c5.1,15.1,7.9,31,8.5,46.9"/>
									</g>
								</g>
								<g>
									<g>
										<path class="st31" d="M350.2,478.7c-8,5.6-26.3,5.9-26.3,5.9s5.3-16.3,13.3-22c8-5.6,20.9-7.1,22.9-3.4
											C361.6,462.1,358.2,473.1,350.2,478.7z"/>
										<g>
											<path class="st0" d="M358.5,459.7c-11,8.8-22.4,17.1-34.2,24.8"/>
											<path class="st0" d="M352.3,458.3c0.2,1.9,0.5,3.8,0.7,5.8c1.7,0.6,3.3,1.1,4.9,1.7"/>
											<path class="st0" d="M345.1,461.3c0.6,2.5,1.1,5,1.5,7.6c2.6,1,5.3,1.9,7.9,2.6"/>
											<path class="st0" d="M349.3,477.9c-3-1.4-6.2-2.9-9.2-4.3c-0.8-2.9-1.7-5.8-2.8-8.7"/>
											<path class="st0" d="M332.4,471.4c0.5,2.2,1.1,4.4,1.6,6.6c2.2,0.9,4.5,2,6.6,3.2"/>
											<path class="st0" d="M328.1,476.4c0.5,1.5,0.9,3.1,1,4.8c1.5,0.6,3.3,1.4,4.6,2.3"/>
										</g>
									</g>
									<g>
										<g>
											<g>
												<path class="st21" d="M346.3,436.4c-1.2,11.3-5.9,12.9-11.2,9.8c-5.3-3.1-9.2-9.7-8-20.9c0.9-8.9,8-16.1,10.9-18.7
													c0.6-0.5,1.6-0.3,1.9,0.4C341.8,411.8,347.3,427,346.3,436.4z"/>
												<path class="st21" d="M337.9,430.6c-8.5,7.4-7.1,12.3-1.6,14.8c5.6,2.6,13.2,1.9,21.7-5.5c7.1-6.2,8.7-16.9,9.1-20.3
													c0.1-0.5-0.4-1-0.9-0.8C361.9,419.8,345.3,424.2,337.9,430.6z"/>
												<path class="st25" d="M341.1,438.5c1.1,11.3-3.2,13.8-9,11.9c-5.8-1.9-11-7.6-12.1-18.9c-0.9-8.9,4.6-17.4,6.9-20.6
													c0.5-0.7,1.5-0.6,1.9,0.1C331.7,415.4,340.2,429.2,341.1,438.5z"/>
												<path class="st25" d="M340.1,437.7c-10,5.3-9.7,10.3-4.9,14.1c4.8,3.8,12.4,4.9,22.4-0.4c8.3-4.4,12.3-14.5,13.4-17.8
													c0.2-0.5-0.2-1-0.7-1C365.9,432.6,348.8,433.1,340.1,437.7z"/>
												<path class="st25" d="M352.2,437c-5.9,12.1-12.2,14.6-17.3,12.1c-5.1-2.5-7.1-8.9-1.2-21.1c4.8-9.8,16.6-18.7,20.9-21.7
													c0.7-0.5,1.7,0,1.8,0.9C356.6,412.4,356.9,427.2,352.2,437z"/>
												<g>
													<path class="st20" d="M342.5,441.7c-2.4,4.9-8.1,9.3-8.1,9.3s0-7.2,2.3-12.1c2.4-4.9,4.7-6.3,6.3-5.5
														S344.9,436.8,342.5,441.7z"/>
													<path class="st20" d="M347.6,450.3c-5.1,1.9-12.2,1.1-12.2,1.1s5-5.2,10-7.1s7.7-1.3,8.3,0.3S352.7,448.4,347.6,450.3z
														"/>
													<path class="st20" d="M332.7,438.1c1.5,5.2,0.3,12.3,0.3,12.3s-4.9-5.3-6.4-10.5s-0.8-7.8,0.9-8.3
														C329.1,431.1,331.2,432.9,332.7,438.1z"/>
												</g>
											</g>
											<path class="st31" d="M323.4,444.1c2.3,4.2,9,10.9,9,10.9s11,1.2,15.7,0.1c-0.1-1.1-1.3-1.9-2.4-2.2
												c-1.1-0.2-2.2,0-3.3,0c-1.1,0.1-2.3-0.1-3.1-0.8c-0.9-0.8-1.1-2.1-1.4-3.3s-0.8-2.5-2-2.9c-1.7-0.6-3.3,1.2-5.1,1.2
												c-1.4,0-2.5-1.1-3.5-2C326.4,444.3,324.7,443.7,323.4,444.1z"/>
										</g>
										<path class="st10" d="M333.5,452.9c-7.2,13.9-10.7,29.7-10.1,45.4"/>
									</g>
								</g>
							</g>
							<g>
								<path class="st28" d="M380.5,505.9c-40.5,0.3-89.3,8.3-129.3,1.6c-5.1-0.9-8.3-7.3-5.9-11.8c2.3-4.6,9.4-5.7,13.1-2
									c-0.8-1.9-0.8-4.6,0-6.9c0.5-1.8,1.5-3.3,2.7-4.3c2.9-2.2,7.2-2.1,9.9,0.2c-1.5-4-0.7-10.4,1.8-13.9
									c2.5-3.4,7.3-5.2,11.3-3.7c4,1.5,6.5,6.4,4.9,10.3c1.8-2.8,6.1-4.8,9.4-4c3.3,0.8,5.8,3.9,6.1,7.2c3-3.6,6.2-6.8,10.6-8.5
									c4.3-1.7,9.7-1.3,12.9,2.1c2.6,2.8,2.8,7.7,0.4,10.4c2.1-0.9,5.1-0.8,7.2-0.4c2.9,0.6,5.3,2.9,6,5.8
									c3.3-4.5,6.2-8.7,11.4-10.9c5.1-2.2,11.6-1.9,15.6,2c3.5,3.4,4,9.8,0.8,13.2c2.6-1.8,5.6-2.3,9.1-2.1
									c3.4,0.2,6.8,2.3,8.3,5.3c0.3,0.6,0.5,1.3,0.7,2C388.1,501.6,384.6,506.2,380.5,505.9z"/>
								<path class="st9" d="M386.6,495.6c-0.5-0.1-1.1-0.3-1.6-0.4c-7-1.5-13.4-2.1-20.3-0.3c2.4-3.2,0.9-8.3-2.5-10.3
									c-3.4-2.1-7.9-1.6-11.4,0.4s-4.5,5.7-6.5,9.2c-3.5-3.6-8.4-5.7-13.4-5.8c-5,0-10.3,1.3-13.8,4.9c1.3-1.7,2.6-3.6,3-5.7
									c0.4-2.1-0.4-4.7-2.4-5.5c-1.6-0.7-3.6-0.1-5.2,0.6c-3.6,1.7-6.6,3.5-9.1,6.7c-3.1-4.4-10.2-5.1-14.5-2
									c1.2-3.1-0.9-6.8-4.1-7.8c-3.1-1-6.8,0.4-8.8,3c-2.1,2.6-2.4,5.8-2,9c-1.5-3.3-4.8-5.8-8.4-6.3c-2.6-0.4-5.3,0.2-7.5,1.5
									c0.5-1.8,1.5-3.3,2.7-4.3c2.9-2.2,7.2-2.1,9.9,0.2c-1.5-4-0.7-10.4,1.8-13.9c2.5-3.4,7.3-5.2,11.3-3.7
									c4,1.5,6.5,6.4,4.9,10.3c1.8-2.8,6.1-4.8,9.4-4c3.3,0.8,5.8,3.9,6.1,7.2c3-3.6,6.2-6.8,10.6-8.5c4.3-1.7,9.7-1.3,12.9,2.1
									c2.6,2.8,2.8,7.7,0.4,10.4c2.1-0.9,5.1-0.8,7.2-0.4c2.9,0.6,5.3,2.9,6,5.8c3.3-4.5,6.2-8.7,11.4-10.9
									c5.1-2.2,11.6-1.9,15.6,2c3.5,3.4,4,9.8,0.8,13.2c2.6-1.8,5.6-2.3,9.1-2.1C381.8,490.5,385.2,492.5,386.6,495.6z"/>
							</g>
						</g>
						<g>
							<g>
								<g>
									<g>
										<g>
											<path class="st19" d="M535.4,449.1c-2.9,2.2-6.1,4.1-9.5,5.7c-1,0.4-2.4,0.7-2.9-0.2c-0.3-0.5-0.1-1.2,0.3-1.6
												c0.4-0.4,1-0.7,1.5-0.9c2-0.9,4-1.8,6-2.7c-4.2,2.1-9,2.9-13.6,2.4c-0.8-0.1-1.8-0.3-2.1-1.1c-0.3-0.6,0-1.4,0.5-1.8
												c0.5-0.5,1.2-0.7,1.8-0.9c4.1-1.2,8.4-1.4,12.6-0.6c-1.8-1.1-4.5-2.2-4.7-4.3c0-0.7,1.1-0.9,1.9-0.9
												c0.7,0.1,1.4,0.4,2,0.8C531.7,444.4,533.9,446.5,535.4,449.1z"/>
											<g>
												<path class="st18" d="M534.8,449.1c27.9,8.5,52.1,28.2,66.3,53.7"/>
												<path class="st18" d="M585,471.8c0.4,4,1.6,8.8,3.2,12.5"/>
												<path class="st18" d="M552,464.3c4.3-1.1,8.8-1.4,13.3-0.8"/>
											</g>
											<path class="st19" d="M554.1,463.8c-2.5,3.8-5.4,7.4-8.7,10.6c-0.9,0.9-2.4,1.8-3.4,1c-0.6-0.5-0.6-1.4-0.3-2
												c0.3-0.7,0.8-1.2,1.4-1.7c2-1.9,3.9-3.8,5.9-5.7c-4,4.2-9.3,7.2-15,8.5c-1,0.2-2.2,0.4-3-0.4c-0.6-0.6-0.6-1.6-0.2-2.4
												c0.4-0.8,1.1-1.3,1.7-1.8c4.2-3.1,9.3-5.2,14.5-6c-2.6-0.5-6.2-0.7-7.3-3.1c-0.4-0.8,0.9-1.6,1.8-1.8
												c0.9-0.2,1.8-0.1,2.7,0.1C547.8,459.8,551.2,461.4,554.1,463.8z"/>
											<path class="st19" d="M585.3,472.8c-3.7-2.9-6.9-6.5-9.5-10.5c-0.5-0.7-0.9-1.7-0.4-2.4c0.4-0.5,1.2-0.6,1.8-0.3
												c0.6,0.3,1,0.9,1.4,1.5c1.6,2.2,3.1,4.4,4.7,6.7c-3.2-5.2-4.1-11.7-2.4-17.5c0.3-1.2,1.3-2.6,2.5-2.3
												c0.8,0.3,1.2,1.3,1.4,2.1c1.2,5.9,1.5,11.9,0.9,17.9c0.4-3.1,1.6-6.1,3.5-8.6c0.5-0.7,1.1-1.3,1.8-1.6s1.7-0.2,2.2,0.4
												c0.6,0.7,0.4,1.8,0.1,2.7C591.9,465.7,589.1,469.9,585.3,472.8z"/>
										</g>
										<g>
											<path class="st33" d="M573.1,469.5c-5.1-7-6.7-16.4-4.2-24.7C574.7,451.8,576,460.8,573.1,469.5z"/>
											<path class="st0" d="M569.5,448.3c0.7,7.1,1.5,14.2,3.4,21.1"/>
										</g>
										<g>
											<path class="st33" d="M575.7,471.6c-7.1-2.5-15.4-1.7-21.9,2.1C560.8,475.8,569.3,475.2,575.7,471.6z"/>
											<path class="st0" d="M556.2,473.4c6.4-0.9,12.8-1.5,19.2-1.7"/>
										</g>
										<g>
											<path class="st33" d="M553.8,456.6c-6.9-5.4-11.6-13.4-12.7-22C548.9,438.9,553.7,447.9,553.8,456.6z"/>
											<path class="st0" d="M542.8,437.8c3.9,6.1,7.5,12.3,11,18.6"/>
										</g>
										<g>
											<path class="st33" d="M547.7,454.1c-8.4-1.6-17.5,0.3-24.6,5.1C531.2,460.8,540.9,458.7,547.7,454.1z"/>
											<path class="st0" d="M527.4,458.3c6.7-1.4,13.5-2.8,20.2-4.1"/>
										</g>
									</g>
									<g>
										<g>
											<path class="st10" d="M568.7,427.9c20,22.4,33.7,50.5,39.1,80.1"/>
											<g>
												<path class="st19" d="M560.6,434.3c-0.5,3.3-2.1,6.3-3.1,9.5c-1,3.2-1.4,6.8,0.4,9.5c1.2,1.8,3.3,3,5.4,3.8
													c2.1,0.7,4.4,1.2,6.6,0.4c2.7-1,4.3-3.8,5.1-6.4c1.8-5.5,1.4-11.6-1-16.9c3,1.8,6,3.6,9.4,4.7s7.2,1.5,10.7,0.3
													c3.5-1.1,6.5-4,7-7.4c0.6-3.9-2.4-7.5-6.2-9.3s-8.1-2-12.1-2.3c5.2-1.3,9.5-5.6,10.5-10.4c1-4.9-1.2-10-5.6-12.7
													c-4.3-2.6-10.5-2.6-15.1,0.1c-4.6,2.7-7.3,7.9-7.1,13.2c-1.3-2.6-2.6-5.3-4.5-7.6c-1.9-2.3-4.5-4.2-7.6-4.7
													c-3.1-0.6-6.7,0.4-8.7,2.8c-1.6,1.9-1.9,4.4-1.8,6.7c0.4,5.8,3.6,11.3,8.4,14.8c-4.6-2.8-11.4-2.3-15.8,1.2
													s-5.9,9.7-3.6,14.3c2.3,4.7,8.3,7.4,13.9,6.3C552,443.3,556.5,438.5,560.6,434.3z"/>
												<g>
													<path class="st1" d="M566.7,422c0.2-4.7,1.1-9.5,2.8-14c-0.6,4-1.1,8.1-1.7,12.1c2-6.9,4.9-13.6,8.6-19.9
														c-2.5,6.2-6.3,15.9-8.8,22.1c3.7-7.2,10.1-17.5,16-23.4c-5.2,6.6-10.6,16-14.5,23.3c4.7-5.2,10.3-12.8,15.1-18
														c-4,5.7-9.5,13.2-14.1,18.5c4.5-4,10.2-10,14.7-14c-4.1,4.1-9.4,10-13.5,14.1c5.5-2.8,12.2-7.7,17.3-11.1
														c-5.6,4.6-11.6,8.8-17.7,12.7C569.4,423.7,568,423,566.7,422z"/>
													<path class="st1" d="M571.8,424.6c4.9-1.2,9.9-1.3,14.8-0.4c-4.6-0.6-9.5-0.3-14.1,1c7.7-0.6,15.4,0.4,22.5,2.7
														c-7.4-1.2-15-1.8-22.5-1.8c8.6,1.2,17.2,2.5,25.4,5c-8.5-1.3-17-2.6-25.5-3.9c7.4,2.3,15,4.2,22.7,5.7
														c-7.1-1-14.1-2.5-21-4.4c6.6,2.7,13.5,5,20.6,6.6c-7.3-1-15.8-3.1-22.3-6.1c4.4,3.3,10.6,6.7,16.1,8.4
														c-6.8-1.2-13.2-4.2-18.2-8.4C570.7,427.7,571.2,426.3,571.8,424.6z"/>
													<path class="st1" d="M563.8,431.2c-1.9,5-3.4,10.2-4.4,15.4c1.4-4.9,3.1-9.8,5.1-14.6c-1.5,6.1-2.4,12.2-2.5,18.4
														c0.2-6.1,1.4-12.1,3.6-17.9c-0.3,6.8-0.5,13.5-0.8,20.3c0.8-6.2,1.5-12.4,2.3-18.6c1.3,6.3,1.8,12.8,1.6,19.2
														c0.5-7.1,0.2-14.2-0.8-21.1c3,5.3,3.9,11.6,4.6,17.6c0.4-4.9-0.2-9.8-1.7-14.5c1.7,2.4,2.9,5,3.6,7.8
														c-0.7-3.6-2-7.1-3.8-10.3c-0.3-0.6-0.7-1.2-1.3-1.6C567.8,430.3,565.6,430.6,563.8,431.2z"/>
													<path class="st1" d="M562.7,430.2c-3.4,3.1-7.1,5.9-11.1,8.3c3.1-1.9,7.4-5.4,9.8-8.1c-5.5,3.8-13.3,7.5-19.9,8.7
														c6-1.6,14.2-6.1,19.5-9.3c-6.8,2.1-16.7,4.9-23.7,6c6.1-1.8,16.7-4.9,22.8-6.6c-5.8,0.6-16.1,2.6-21.9,3.2
														c6.1-1.4,16.1-3.4,22.3-3.9c-5.7-0.3-14.2-0.3-20.4-1.3c6.1-0.1,14,0,19.6,0.5c-5.5-1.4-11.5-2.2-17-3.6
														c5.6,0.7,11.2,1.5,16.8,2.2c0.7,0.1,1.4,0.2,1.9,0.6C562.5,427.7,562.3,429.8,562.7,430.2z"/>
													<path class="st1" d="M565.1,422.4c0.1-4.7-0.5-9.4-1.8-14c0.6,3.8,0.9,7.6,0.8,11.5c-1.2-5-3.1-9.9-5.5-14.5
														c1.9,4.5,3.8,11.8,5,16.5c-3.1-5.4-7-13.4-10.1-18.9c2,5.2,6.3,14.6,8.9,19.5c-4.2-4.6-10.3-13.7-12.3-19.6
														c1.2,6,7,15.8,11,20.5c-3.3-3-9-10.7-11-14.6c1.7,4.6,6.6,12,10.1,15.5c-3.4-2.5-8.8-8.5-11.7-11.4
														c3.7,4.9,7.9,9.4,12.6,13.4C562.4,425.4,563.5,424.4,565.1,422.4z"/>
												</g>
												<g class="st8">
													<path class="st26" d="M572.6,428.6c-0.6,1.9-2.4,3.3-4.5,3.9c-2.2,0.6-4.8,0.1-6.4-1.4c-2.7-2.4-2.1-7.1,1.1-9.3
														c4.1-2.7,9.8,0.9,10,5C572.9,427.5,572.8,428.1,572.6,428.6z"/>
												</g>
											</g>
										</g>
										<g>
											<path class="st33" d="M597.7,472.4c-3.2-7.1-3.9-15.5-1.7-23s7-14.3,13.6-18.7C610.1,445.8,606.5,460.2,597.7,472.4z"/>
											<path class="st0" d="M607.6,435.4c-5.7,10.9-9.2,22.9-10.2,35.2"/>
										</g>
									</g>
								</g>
								<g>
									<g>
										<g>
											<path class="st18" d="M710.2,385.9c-16.4,37.4-18.5,80.7-5.8,119.5"/>
											<path class="st18" d="M711.2,406.5c-6,4.8-10.8,12-12.7,19.4"/>
											<path class="st18" d="M691,422.1c2.9,5.7,4.8,11.8,5.8,18"/>
											<path class="st19" d="M691.4,423.2c-4.7-2.1-9.1-5-12.9-8.5c-0.7-0.6-1.4-1.6-1.1-2.4c0.3-0.7,1.2-0.9,1.9-0.8
												s1.3,0.7,1.9,1.2c2.3,1.9,4.6,3.8,6.8,5.8c-4.8-4.6-7.6-11.3-7.4-17.9c0-1.4,0.6-3.2,2-3.1c1,0,1.6,1,2,1.9
												c2.9,5.9,4.9,12.3,5.9,18.7c-0.5-3.4,0-6.9,1.3-10c0.4-0.8,0.8-1.6,1.5-2.2c0.7-0.5,1.8-0.7,2.5-0.2
												c0.8,0.6,0.9,1.8,0.8,2.8C696.4,413.8,694.6,419,691.4,423.2z"/>
											<path class="st19" d="M710,407.1c5-0.2,10-0.9,14.9-2.2c1.4-0.4,3.1-1.3,2.9-2.7c-0.1-0.8-0.9-1.3-1.7-1.5
												s-1.6,0.1-2.4,0.3c-2.9,0.8-5.8,1.6-8.6,2.3c6.2-1.5,12-4.7,16.4-9.3c0.8-0.8,1.6-1.9,1.3-3c-0.3-0.9-1.2-1.4-2.1-1.5
												c-0.9-0.1-1.8,0.3-2.7,0.6c-5.3,2.2-10.1,5.8-13.8,10.3c1-2.7,2.9-6.2,1.2-8.6c-0.6-0.8-2,0-2.7,0.7
												c-0.7,0.7-1.1,1.6-1.4,2.6C709.8,399,709.4,403.1,710,407.1z"/>
											<path class="st19" d="M709.9,387c3.8-1.4,7.4-3.3,10.8-5.5c1-0.6,2-1.8,1.5-2.8c-0.3-0.6-1.1-0.8-1.7-0.7
												c-0.6,0.1-1.2,0.5-1.7,0.8c-2,1.3-4,2.7-6,4c4.3-2.7,7.9-6.7,10.1-11.3c0.4-0.8,0.7-1.9,0.2-2.6c-0.4-0.6-1.3-0.8-2-0.6
												c-0.7,0.2-1.3,0.7-1.9,1.2c-3.5,3.1-6.2,7-7.8,11.4c0.1-2.3,0.6-5.5-1.3-6.8c-0.7-0.5-1.5,0.5-1.9,1.2
												c-0.4,0.7-0.4,1.5-0.4,2.3C707.6,380.8,708.3,384,709.9,387z"/>
										</g>
										<g>
											<path class="st33" d="M696.4,464.2c-3.9-11.3-13.7-20.4-25.2-23.5C677.6,450.8,685.7,459,696.4,464.2z"/>
											<path class="st0" d="M676.3,444.6c6.9,6.3,13.8,12.6,20.7,19"/>
										</g>
										<g>
											<path class="st33" d="M696.4,449.9c3.3-15,13.4-28.4,26.9-35.7C716.5,427.6,707.8,440.1,696.4,449.9z"/>
											<path class="st0" d="M711.1,428.1c-5.3,7-10.3,14.1-15,21.5"/>
										</g>
										<g>
											<path class="st33" d="M696.8,441.6c-0.6-4.1-3.9-7.3-7.1-9.8c-5.5-4.4-11.6-7.9-18.1-10.6
												C677,430.5,686.9,436.9,696.8,441.6z"/>
											<path class="st0" d="M676,425.1c7.3,4.8,14.1,10.1,20.6,15.9"/>
										</g>
										<g>
											<path class="st33" d="M701.6,410c2.9-9,2.9-21.4-2.7-31.3C699.2,387.8,696.9,401.7,701.6,410z"/>
											<path class="st0" d="M700.1,384.5c1.1,8.2,1.7,16.6,1.6,24.9"/>
										</g>
									</g>
									<g>
										<path class="st10" d="M729.9,448.5c-11.3,14.2-19.7,30.8-24.2,48.4"/>
										<g>
											<path class="st33" d="M710.4,483.4c11.2-9.8,28-12.7,41.9-7.5C739.7,483.5,724.9,485.1,710.4,483.4z"/>
											<path class="st0" d="M747.7,476c-12.2,2.4-24.4,4.7-36.5,7.1"/>
										</g>
										<g>
											<path class="st19" d="M719.4,446.1c-3.3,0.4-6.7-0.3-10.1-0.4c-3.4-0.1-7,0.5-9.1,3.1c-1.4,1.7-2,4-2.2,6.3
												c-0.2,2.2,0.1,4.6,1.5,6.5c1.8,2.4,4.8,3.1,7.6,3.2c5.9,0.2,11.6-1.9,16.1-5.7c-0.9,3.4-1.9,6.8-2,10.4
												c-0.1,3.6,0.6,7.4,2.6,10.5c2.1,3.1,5.7,5.2,9.1,4.8c4-0.5,6.7-4.4,7.3-8.5c0.6-4.1-0.3-8.4-1.1-12.4
												c2.7,4.7,8.1,7.7,13.1,7.4c5-0.3,9.4-4,10.8-8.9c1.4-4.9-0.4-10.9-4.3-14.6s-9.7-4.9-14.8-3.2c2.2-2,4.4-4,6.1-6.4
												c1.7-2.5,2.8-5.5,2.5-8.7s-2.3-6.4-5.1-7.6c-2.3-1-4.8-0.6-7,0.2c-5.5,2-10,6.7-12.1,12.2c1.5-5.3-0.9-11.7-5.5-15
												c-4.6-3.3-11.1-3.1-14.9,0.5s-4.8,10.1-2.2,15.3C708.3,440.2,714.2,443.2,719.4,446.1z"/>
											<g>
												<path class="st1" d="M733,448.5c4.7-1.1,9.5-1.5,14.4-1.2c-4.1,0.6-8.2,1.1-12.2,1.7c7.2,0.1,14.6,1,21.7,2.8
													c-6.7-0.7-17.2-1.7-23.9-2.4c8.1,1.6,19.9,4.9,27.2,9.1c-7.9-3.2-18.5-5.8-26.7-7.6c6.4,3.2,15.3,6.5,21.7,9.7
													c-6.6-2.3-15.5-5.5-21.9-8.6c5.1,3.3,12.6,7.1,17.7,10.4c-5.2-2.8-12.3-6.4-17.5-9.2c4.3,4.6,10.8,9.7,15.6,13.7
													c-6-4.2-11.8-8.8-17.3-13.7C732.2,451.7,732.5,450.1,733,448.5z"/>
												<path class="st1" d="M732,454.3c2.5,4.4,4,9.3,4.5,14.2c-0.7-4.7-2.4-9.3-4.8-13.4c2.7,7.3,3.9,15.1,3.6,22.7
													c-0.9-7.5-2.4-15-4.5-22.4c1.2,8.7,2.3,17.4,2.2,26.1c-1.1-8.6-2.2-17.3-3.3-25.9c-0.1,7.9,0.1,15.8,0.8,23.7
													c-1-7.2-1.4-14.4-1.5-21.6c-0.8,7.2-1.1,14.5-0.8,21.8c-1-7.4-1.3-16.2-0.3-23.4c-2,5.2-3.6,12.2-3.7,17.9
													c-0.7-7,0.4-14,3.2-20C728.7,454.1,730.1,454.2,732,454.3z"/>
												<path class="st1" d="M723.3,448.3c-5.4-0.5-10.8-0.5-16.2,0c5.2,0,10.4,0.3,15.6,0.9c-6.3,0.2-12.6,1.1-18.6,2.6
													c5.9-1.5,12.2-2,18.4-1.5c-6.7,1.6-13.3,3.2-20,4.9c6.2-1,12.5-1.9,18.7-2.9c-5.8,3-11.9,5.3-18.3,6.9
													c7-1.5,13.8-3.7,20.3-6.7c-4.4,4.4-10.2,7-15.9,9.4c4.9-1,9.5-2.9,13.6-5.6c-1.8,2.3-4.1,4.2-6.6,5.7
													c3.3-1.7,6.4-3.9,9-6.6c0.5-0.5,1-1,1.2-1.7C725.3,452,724.4,449.9,723.3,448.3z"/>
												<path class="st1" d="M724,447c-4-2.4-7.7-5.3-11.1-8.6c2.7,2.5,7.3,5.7,10.6,7.3c-5.2-4.3-11-10.9-14-17
													c3.2,5.3,9.9,12.2,14.4,16.4c-3.9-6-9.4-14.8-12.4-21.4c3.4,5.5,9.4,14.9,12.8,20.4c-2.2-5.5-6.9-15-9.1-20.4
													c3,5.5,7.8,14.7,10,20.6c-1.3-5.6-3.6-13.9-4.4-20.2c1.8,5.9,3.9,13.6,4.9,19.2c-0.2-5.7-1-11.8-1.2-17.6
													c0.8,5.6,1.7,11.3,2.5,16.9c0.1,0.7,0.2,1.4,0,2C726.3,446.1,724.2,446.5,724,447z"/>
												<path class="st1" d="M732.2,447.1c4.6-1.2,9-3.1,13.1-5.6c-3.5,1.7-7.2,3-11,3.9c4.6-2.6,8.8-5.7,12.6-9.4
													c-3.8,3.1-10.4,7-14.6,9.4c4.4-4.6,11.1-10.5,15.5-15c-4.5,3.4-12.4,10.1-16.5,14.1c3.3-5.3,10.5-13.8,15.6-17.3
													c-5.5,2.8-13.4,11.2-16.9,16.4c2.1-4,7.9-11.7,11.2-14.7c-4,2.9-9.8,9.8-12.3,14.1c1.5-4,5.8-10.9,7.8-14.5
													c-3.7,4.9-6.9,10.3-9.6,15.9C728.6,445.3,729.8,446.2,732.2,447.1z"/>
											</g>
											<g class="st8">
												<path class="st26" d="M728.3,456.2c-2-0.1-3.9-1.4-5-3.3c-1.2-2-1.4-4.6-0.4-6.6c1.6-3.3,6.3-4,9.3-1.5
													c3.8,3.3,1.8,9.8-2.1,11.1C729.4,456.1,728.8,456.2,728.3,456.2z"/>
											</g>
										</g>
									</g>
								</g>
								<g>
									<g>
										<path class="st31" d="M665.9,456.7c-4.7,7.1-19.3,13.1-19.3,13.1s-1-14.9,3.7-22s14.6-12.4,17.3-10.1
											C669.9,439.6,670.6,449.6,665.9,456.7z"/>
										<g>
											<path class="st0" d="M666.6,438.7c-6.1,10.6-12.6,20.9-19.6,30.9"/>
											<path class="st0" d="M661.1,439.5c0.8,1.5,1.6,2.9,2.4,4.4c1.5-0.1,3-0.2,4.5-0.2"/>
											<path class="st0" d="M656.3,444.2c1.3,1.8,2.5,3.7,3.6,5.6c2.4,0,4.8-0.2,7.2-0.4"/>
											<path class="st0" d="M664.9,456.3c-2.9-0.2-5.9-0.3-8.8-0.5c-1.6-2.1-3.2-4.1-5-6.1"/>
											<path class="st0" d="M649.2,456.4c1.1,1.6,2.3,3.2,3.4,4.8c2.1,0,4.2,0.2,6.3,0.4"/>
											<path class="st0" d="M647.4,461.8c0.9,1.1,1.7,2.3,2.3,3.5c1.4,0,3.1,0.1,4.4,0.3"/>
										</g>
									</g>
									<g>
										<path class="st31" d="M633.6,440.8c6.7,5.3,11.4,20.3,11.4,20.3s-14.9-0.3-21.6-5.6c-6.7-5.3-11.1-15.6-8.5-18.1
											C617,435.4,626.9,435.5,633.6,440.8z"/>
										<g>
											<path class="st0" d="M615.8,438.6c10,7,19.8,14.4,29.1,22.2"/>
											<path class="st0" d="M616.2,444.1c1.5-0.7,3.1-1.3,4.6-2c0.1-1.5,0.1-3,0.2-4.5"/>
											<path class="st0" d="M620.4,449.3c1.9-1.1,3.9-2.2,5.9-3.1c0.2-2.4,0.2-4.8,0.2-7.2"/>
											<path class="st0" d="M633.2,441.7c-0.4,2.8-0.8,5.9-1.3,8.7c-2.2,1.4-4.4,2.9-6.5,4.5"/>
											<path class="st0" d="M632,457.4c1.7-1,3.4-2,5.1-3c0.2-2.1,0.5-4.2,1-6.3"/>
											<path class="st0" d="M637.2,459.7c1.1-0.8,2.4-1.5,3.7-2c0.1-1.4,0.3-3,0.7-4.4"/>
										</g>
									</g>
									<g>
										<g>
											<g>
												<path class="st21" d="M640.5,420.3c5,8.4,2.5,12-2.8,12.6s-11.4-2-16.4-10.5c-3.9-6.7-2.7-15.4-2-18.7
													c0.1-0.7,0.9-1,1.5-0.7C624.8,405.5,636.4,413.2,640.5,420.3z"/>
												<path class="st21" d="M631.7,420.6c-2.1,9.6,1.3,12.2,6.5,11.2c5.2-1.1,10.2-5.4,12.3-15c1.8-8-2.6-16.3-4.1-18.8
													c-0.2-0.4-0.8-0.5-1.1-0.1C642.9,400.7,633.6,412.3,631.7,420.6z"/>
												<path class="st25" d="M638,424.4c6.6,7.3,4.9,11.3-0.2,12.9c-5.1,1.6-11.6,0.3-18.1-7c-5.2-5.7-5.7-14.5-5.7-17.9
													c0-0.7,0.7-1.2,1.4-0.9C619.6,413.1,632.5,418.4,638,424.4z"/>
												<path class="st25" d="M636.9,424.3c-4.2,8.8-1.5,12.2,3.8,12.3c5.3,0.1,11.2-3,15.4-11.8c3.5-7.4,1.2-16.5,0.3-19.3
													c-0.1-0.4-0.7-0.6-1-0.3C652.3,407.5,640.6,416.7,636.9,424.3z"/>
												<path class="st25" d="M644.9,417.7c2.1,11.5-1,16.4-5.9,17.3c-4.8,0.9-9.5-2.6-11.6-14.1c-1.7-9.3,2-21.6,3.4-25.9
													c0.2-0.7,1.2-0.9,1.7-0.3C635.4,398.2,643.2,408.4,644.9,417.7z"/>
												<g>
													<path class="st20" d="M640.6,425.9c0.8,4.6-0.9,10.6-0.9,10.6s-3.7-5-4.6-9.6s0-6.8,1.5-7.1
														C638.2,419.6,639.8,421.3,640.6,425.9z"/>
													<path class="st20" d="M648.6,429.3c-2.6,3.9-8,7.1-8,7.1s0.8-6.2,3.4-10.1c2.6-3.9,4.7-4.9,6-4
														C651.2,423.1,651.1,425.4,648.6,429.3z"/>
													<path class="st20" d="M631.9,428.5c3.7,2.8,6.5,8.4,6.5,8.4s-6.1-1.2-9.9-4c-3.7-2.8-4.6-5-3.6-6.3
														C625.8,425.4,628.2,425.6,631.9,428.5z"/>
												</g>
											</g>
											<path class="st31" d="M628.5,437.4c3.8,1.8,11.9,3,11.9,3s8.3-4.8,11-7.9c-0.7-0.7-1.9-0.7-2.8-0.3
												c-0.9,0.4-1.5,1.1-2.3,1.7c-0.7,0.6-1.6,1.1-2.6,1c-1-0.1-1.9-0.9-2.7-1.6c-0.8-0.7-1.8-1.3-2.8-1
												c-1.5,0.5-1.7,2.5-2.9,3.4c-1,0.7-2.3,0.5-3.5,0.4C630.7,436,629.3,436.5,628.5,437.4z"/>
										</g>
										<path class="st10" d="M639.7,438.9c4.4,13.1,6.9,26.9,7.4,40.7"/>
									</g>
								</g>
							</g>
							<g>
								<path class="st28" d="M761.1,479.5c-0.8,10,0,19.6-0.2,29.7c-23.6-2.9-171.2,4.7-219.6-3.1c-1.6-2.1-2.3-4.8-1.9-7.5
									c0.2-1.8,0.9-3.5,2-4.9c2.8-3.5,8-4.7,12-2.8c-1.6-5.7,2.4-12.4,8-14.5c5.6-2.1,12.5,0.8,15,6.1c5.7-3.8,12.1-1.5,16.5,3.7
									c-0.5-7.4,5-15,12.2-16.6c7.2-1.6,15.2,2.8,17.8,9.7c3.9-1.9,9.1-0.3,11.9,3c-2.2-4-0.1-9,3.2-12.1c3.3-3.2,8-4.4,12.6-4.5
									c3.8-0.1,7.7,0.7,10.7,3c3,2.3,4.7,6.5,3.4,10.1c4.9-3.3,10.7-3.7,16.4-1.9c5.7,1.8,10.4,6.2,12.6,11.8
									c5.1-2.7,12.1-1.5,16.3,2.4c0.5-5.4,3.9-11.1,8.8-13.4c4.9-2.2,11-1.7,15.4,1.4c-0.2-1.8,1.3-4.6,2.8-5.6
									c1.5-1,3.2-1.4,5-1.8c4-0.9,8.1-1.9,12.1-0.9c0.1,0,0.2,0,0.3,0.1C757.9,472,761.4,475.5,761.1,479.5z"/>
								<path class="st9" d="M754,471c-2.6,0.1-5.2,0.5-7.7,1.5c-4.9,1.9-9.3,6.5-9.1,11.8c-4.2-3.9-10.3-4.7-15.6-2.5
									c-5.3,2.2-9.1,7.8-9.2,13.5c-6.8-2.8-15.1-2.5-21.5,1.1c-2-5.4-6.3-10-11.5-12.5c-5.2-2.5-11.4-2.8-16.8-0.9
									c-0.8-4.2-4-8-8.2-8.8c-4.2-0.8-8.6,0.8-11.7,3.7c-3.1,2.9-4.9,7-5.6,11.2c-1.7-2.4-3.6-5.1-6.6-5.6c-3-0.5-6.1,0.3-8.5,2.1
									c-1.5-4.7-5.1-8.6-9.9-9.8c-4.8-1.3-10.1,0.1-13.7,3.4c-3.2,3-5,7.4-4.7,11.8c-0.4-1.2-1.5-2.3-2.5-3
									c-1.4-1-3.2-1.4-4.9-1.8c-1.5-0.3-3.1-0.7-4.7-0.6c-1.6,0.1-3.2,0.7-4.2,1.9c-2.2-4.3-8-6.3-12.7-5
									c-4.7,1.3-8.1,6.2-7.7,11.1c-5.3-1.1-11-0.4-15.3,3c-0.9,0.7-1.7,1.4-2.4,2.2c0.2-1.8,0.9-3.5,2-4.9c2.8-3.5,8-4.7,12-2.8
									c-1.6-5.7,2.4-12.4,8-14.5c5.6-2.1,12.5,0.8,15,6.1c5.7-3.8,12.1-1.5,16.5,3.7c-0.5-7.4,5-15,12.2-16.6
									c7.2-1.6,15.2,2.8,17.8,9.7c3.9-1.9,9.1-0.3,11.9,3c-2.2-4-0.1-9,3.2-12.1c3.3-3.2,8-4.4,12.6-4.5c3.8-0.1,7.7,0.7,10.7,3
									c3,2.3,4.7,6.5,3.4,10.1c4.9-3.3,10.7-3.7,16.4-1.9c5.7,1.8,10.4,6.2,12.6,11.8c5.1-2.7,12.1-1.5,16.3,2.4
									c0.5-5.4,3.9-11.1,8.8-13.4c4.9-2.2,11-1.7,15.4,1.4c-0.2-1.8,1.3-4.6,2.8-5.6c1.5-1,3.2-1.4,5-1.8c4-0.9,8.1-1.9,12.1-0.9
									C753.9,470.9,754,471,754,471z"/>
							</g>
						</g>
					</g>
				</g>
			</g>
		</g>
	</g>
</g>
</svg>
