<?xml version="1.0" encoding="utf-8"?>
<!-- Generator: Adobe Illustrator 16.0.0, SVG Export Plug-In . SVG Version: 6.00 Build 0)  -->
<!DOCTYPE svg PUBLIC "-//W3C//DTD SVG 1.1//EN" "http://www.w3.org/Graphics/SVG/1.1/DTD/svg11.dtd">
<svg version="1.1" id="Layer_1" xmlns="http://www.w3.org/2000/svg" xmlns:xlink="http://www.w3.org/1999/xlink" x="0px" y="0px"
	 width="4000px" height="4000px" viewBox="0 0 4000 4000" enable-background="new 0 0 4000 4000" xml:space="preserve">
<g>
	<g>
		<g>
			<g>
				<g>
					<path fill="#F2F2F2" d="M3233.117,1878.411c-88.947-148.778-261.369-237.883-443.401-211.874l-114.317,16.333l66.439,741.459
						l24.576,274.238l167.339-23.909c241.901-34.563,410.602-259.505,376.032-501.454l-18.656-130.58
						C3282.574,1982.755,3262.33,1927.322,3233.117,1878.411z M2786.512,2499.951l-8.561-63.992l-75.145-561.261l114.316-16.333
						c136.144-19.451,262.719,75.475,282.177,211.667l18.657,130.58c19.459,136.191-75.469,262.766-211.611,282.218
						L2786.512,2499.951z"/>
				</g>
			</g>
			<g>
				<path fill="#F2F2F2" d="M2670.097,2919.33c39.55,276.806-511.118,442.05-871.292,384.09c-0.095,0.014-0.15-0.027-0.245-0.014
					c-158.984-25.614-280.803-94.727-298.264-216.938L2670.097,2919.33z"/>
			</g>
			<g>
				<path fill="#FFFFFF" d="M2670.694,2923.854L1562.76,3082.153c17.461,122.211,139.28,191.323,298.264,216.938
					c0.095-0.014,0.149,0.027,0.244,0.014c63.871,10.284,133.726,13.551,205.185,10.376c-92.98,8.772-185.253,7.205-267.649-6.061
					c-0.095,0.014-0.15-0.027-0.245-0.014c-158.984-25.614-280.803-94.727-298.264-216.938l1169.801-167.138
					C2670.314,2920.852,2670.524,2922.326,2670.694,2923.854z"/>
			</g>
			<g opacity="0.3">
				<path fill="#650000" d="M2670.097,2919.33c39.55,276.806-511.118,442.05-871.292,384.09
					c161.748,15.417,275.542-21.221,341.258-109.752l222.271-230.365L2670.097,2919.33z"/>
			</g>
			<g opacity="0.3">
				<path fill="#650000" d="M3291.129,2042.624l18.656,130.58c34.569,241.949-134.131,466.892-376.032,501.454l-167.339,23.909
					l-24.576-274.238c12.051,3.519,24.211,7.459,36.113,11.63l8.561,63.992l108.754-15.538c3.233,1.576,5.006,2.438,5.006,2.438
					c328-42.254,410.813-304.564,330.59-606.905c0,0,0.795-0.551,2.256-1.535C3262.33,1927.322,3282.574,1982.755,3291.129,2042.624
					z"/>
			</g>
			<g>
				<path fill="#F2F2F2" d="M2648.229,1492.706l129.083,903.457c72.923,510.386-282.641,747.227-664.252,801.751
					c-40.658,5.809-81.614,9.525-122.463,10.946c-0.047,0.007-0.047,0.007-0.047,0.007
					c-342.225,11.97-674.535-138.624-739.685-594.609l-129.084-903.457c-9.24-64.672,324.981-165.945,746.49-226.17
					c174.329-24.907,336.294-38.878,466.943-42.114c95.636-2.406,174.525,0.928,229.191,9.955
					C2615.64,1460.921,2645.605,1474.351,2648.229,1492.706z"/>
			</g>
			<g>
				<path fill="#FFFFFF" d="M2140.926,3193.593c-9.287,1.569-18.546,2.989-27.866,4.321c-40.658,5.809-81.614,9.525-122.463,10.946
					c-0.047,0.007-0.047,0.007-0.047,0.007c-342.225,11.97-674.535-138.624-739.685-594.609l-129.084-903.457
					c-9.24-64.672,324.981-165.945,746.49-226.17c9.32-1.332,18.6-2.608,27.832-3.879
					c-407.623,60.617-726.281,158.746-717.258,221.896l129.083,903.457c65.149,455.984,397.46,606.578,739.685,594.608
					c0,0,0,0,0.048-0.007C2078.754,3199.613,2109.9,3197.2,2140.926,3193.593z"/>
			</g>
			<g opacity="0.3">
				<path fill="#650000" d="M2648.229,1492.706l4.667,32.669c-2.751,10.972-4.707,17.996-4.707,17.996
					c-55.495-40.304-99.909,14.274-99.909,14.274l-35.223,24.83l-78.809-8.538c0,0-88.572-42.225-91.629-46.641
					c-3.057-4.415-13.758-53.836-10.531-73.707c0.598-3.628,1.624-7.316,3.125-11.073c95.636-2.406,174.525,0.928,229.191,9.955
					C2615.64,1460.921,2645.605,1474.351,2648.229,1492.706z"/>
			</g>
			<g>
				<path fill="#650000" d="M1952.153,3229.982c-124.785,0-266.753-21.966-395.898-94.321
					c-181.372-101.614-290.898-276.077-325.542-518.545l-129.082-903.457c-4.033-28.245,15-73.188,225.957-137.107
					c141.963-43.013,332.959-82.819,537.798-112.087c204.849-29.268,399.36-44.544,547.671-43.003
					c220.42,2.285,251.279,40.1,255.317,68.347l0,0l129.082,903.457c34.644,242.466-21.646,440.623-167.305,588.96
					c-153.252,156.077-364.224,214.385-514.219,235.815C2067.451,3224.97,2011.758,3229.982,1952.153,3229.982z M2392.549,1462.063
					c-143.638,0-328.281,15.103-521.401,42.695c-197.349,28.198-382.554,66.436-521.494,107.671
					c-166.904,49.536-206.528,85.949-207.715,95.798l129.067,903.133c89.165,624.058,664.854,591.276,839.17,566.389
					c174.321-24.907,736.147-154.67,646.987-778.726l-129.053-903.249c-4.233-9.204-52.773-32.881-226.182-33.691
					C2398.828,1462.067,2395.693,1462.063,2392.549,1462.063z M2628.159,1495.881c0,0,0,0,0,0.002
					C2628.159,1495.881,2628.159,1495.881,2628.159,1495.881z"/>
			</g>
			<g>
				<path fill="#650000" d="M1953.433,3335.209c-233.833,0-448.223-70.464-473.281-245.864
					c-1.592-11.128,6.143-21.436,17.271-23.025c11.094-1.596,21.431,6.144,23.022,17.269
					c15.161,106.111,117.363,157.397,200.425,181.736c110.249,32.302,253.794,38.262,404.204,16.768
					c150.415-21.489,286.558-67.405,383.35-129.287c72.935-46.629,156.689-124.485,141.528-230.599
					c-1.592-11.128,6.143-21.436,17.271-23.024c11.099-1.587,21.431,6.14,23.022,17.268
					c31.362,219.512-267.998,364.302-559.414,405.936C2072.28,3330.751,2012.231,3335.209,1953.433,3335.209z"/>
			</g>
			<g>
				<g>
					<path fill="#650000" d="M2766.387,2718.9c-9.966,0-18.672-7.324-20.122-17.476c-1.592-11.125,6.143-21.436,17.266-23.024
						l167.339-23.909c230.806-32.979,391.748-247.6,358.77-478.428l-18.657-130.581
						c-32.983-230.835-247.632-391.804-478.389-358.818l-114.316,16.333c-11.162,1.582-21.44-6.14-23.027-17.268
						c-1.592-11.128,6.143-21.436,17.266-23.025l114.316-16.333c253.057-36.154,488.281,140.306,524.443,393.354l18.657,130.581
						c36.152,253.047-140.283,488.325-393.301,524.478l-167.339,23.909C2768.315,2718.832,2767.344,2718.9,2766.387,2718.9z"/>
				</g>
				<g>
					<path fill="#650000" d="M2786.484,2520.285c-9.966,0-18.672-7.324-20.122-17.476c-1.592-11.128,6.143-21.436,17.266-23.025
						l119.834-17.121c60.469-8.641,114.004-40.386,150.757-89.395c36.748-49.012,52.231-109.312,43.589-169.798l-18.657-130.581
						c-8.643-60.485-40.391-114.038-89.395-150.796c-49.004-36.755-109.316-52.238-169.756-43.601l-114.316,16.333
						c-11.147,1.572-21.44-6.143-23.027-17.269c-1.592-11.128,6.143-21.436,17.266-23.024l114.316-16.333
						c71.23-10.184,142.241,8.052,199.941,51.33c57.7,43.281,95.083,106.355,105.264,177.603l18.657,130.581
						c10.181,71.248-8.047,142.266-51.318,199.974c-43.271,57.707-106.333,95.093-177.563,105.269l-119.829,17.121
						C2788.413,2520.217,2787.441,2520.285,2786.484,2520.285z"/>
				</g>
			</g>
			<g>
				<path fill="#650000" d="M2494.924,1585.086c6.1-19.691-7.831-40.656-25.338-51.54c-25.439-15.815-57.807-17.285-81.407-37.58
					c-5.765-4.957-10.609-11.033-13.593-18.026c-18.718-43.89,44.191-76.295,27.622-120.86
					c-3.721-10.009-11.06-18.313-20.077-24.031c-20.871-13.236-46.141-12.309-69.203-6.598
					c-23.465,5.811-45.599,16.349-69.211,21.525c-5.903,1.294-12.227,1.305-18.686,0.355c-28.655-4.21-50.894-26.386-58.731-54.268
					c-9.979-35.496-34.883-66.877-67.867-83.559c-41.63-21.055-94.489-17.866-133.287,8.039
					c-23.225,15.508-45.018,39.518-72.856,37.295c-19.63-1.567-35.505-16.178-53.919-23.156
					c-23.147-8.773-50.779-4.443-70.134,10.99c-19.355,15.433-26.927,46.822-32.225,71.003
					c-10.111,46.154-61.615,73.948-108.817,71.85c-47.202-2.099-90.19-27.013-128.884-54.127
					c-38.694-27.113-76.137-57.567-120.598-73.557c-55.484-19.952-119.47-14.786-171.034,13.811s-89.832,80.139-102.289,137.771
					c-13.615,62.992,2.971,129.5,33.028,186.508c30.058,57.009,72.849,106.121,115.242,154.662
					C1689.295,1791.012,2104.391,1739.752,2494.924,1585.086z"/>
			</g>
			<g opacity="0.55">
				<path fill="#FFFFFF" d="M2163.129,1284.461c-10.924-12.608-24.171-23.138-39.13-30.705
					c-41.582-21.038-94.454-17.851-133.264,8.025c-23.212,15.496-45.012,39.524-72.844,37.29
					c-19.632-1.562-35.502-16.181-53.918-23.157c-23.186-8.77-50.808-4.435-70.147,10.993s-26.934,46.84-32.212,71.031
					c-10.101,46.133-61.641,73.926-108.814,71.834c-47.22-2.085-90.182-27.001-128.897-54.126
					c-38.715-27.125-76.161-57.586-120.609-73.556c-55.502-19.971-119.44-14.767-171.014,13.808
					c-51.568,28.621-89.867,80.142-102.304,137.77c-13.437,62.187,2.537,127.788,31.904,184.247
					c-8.784-13.254-16.99-26.881-24.442-41.004c-30.075-56.988-46.659-123.474-33.053-186.509
					c12.438-57.628,50.736-109.148,102.304-137.771c51.574-28.573,115.519-33.73,171.014-13.807
					c44.455,16.018,81.901,46.478,120.609,73.555c38.715,27.125,81.677,52.042,128.896,54.127
					c47.18,2.139,98.713-25.701,108.814-71.835c5.278-24.19,12.879-55.556,32.219-70.983s46.961-19.763,70.147-10.993
					c18.417,6.977,34.286,21.596,53.918,23.157c27.826,2.188,49.632-21.794,72.845-37.289
					c38.803-25.925,91.675-29.111,133.256-8.073C2128.38,1225.665,2151.688,1252.954,2163.129,1284.461z"/>
			</g>
			<g opacity="0.55">
				<path fill="#FFFFFF" d="M2404.951,1374.664c-20.326-11.508-44.388-10.447-66.459-4.965
					c-23.43,5.822-45.556,16.359-69.175,21.529c-5.931,1.284-12.235,1.312-18.682,0.341c-28.647-4.205-50.882-26.357-58.75-54.251
					c-0.489-1.725-1.02-3.396-1.597-5.061c9.688,8.369,21.576,14.144,34.762,16.093c6.44,0.924,12.751,0.944,18.675-0.388
					c23.62-5.17,45.746-15.707,69.176-21.529c23.11-5.68,48.354-6.617,69.217,6.608c9.021,5.747,16.366,14.015,20.082,24.062
					C2404.477,1363.184,2405.257,1368.991,2404.951,1374.664z"/>
			</g>
			<g opacity="0.55">
				<path fill="#FFFFFF" d="M2496.338,1577.537c-0.373-0.237-0.801-0.517-1.175-0.754c-25.455-15.821-57.783-17.268-81.404-37.572
					c-5.754-4.952-10.599-11.005-13.587-18.002c-2.779-6.542-3.771-12.806-3.432-18.919c22.5,14.496,50.366,17.308,72.839,31.274
					C2484.857,1543.027,2497.411,1560.255,2496.338,1577.537z"/>
			</g>
			<g>
				<path fill="#650000" d="M1455.596,1796.418c-5.986,0-11.865-0.029-17.69-0.091c-188.94-1.948-217.666-33.645-221.582-61.04
					c-1.592-11.128,6.138-21.438,17.266-23.027c10.835-1.553,20.85,5.706,22.871,16.321c2.529,2.896,28.706,26.955,197.061,27.131
					c0.601,0,1.206,0.003,1.807,0.003c122.915,0,281.362-12.974,446.455-36.561c457.705-65.396,632.568-148.215,638.428-187.927
					c1.636-11.116,11.978-18.812,23.101-17.163c11.123,1.641,18.804,11.984,17.163,23.105
					c-4.258,28.879-30.752,73.56-210.835,127.907c-116.694,35.218-276.489,67.852-462.104,94.37
					C1739.937,1783.396,1580.376,1796.418,1455.596,1796.418z"/>
			</g>
			<g>
				<path fill="#650000" d="M1252.671,1771.945c-5.674,0-11.313-2.356-15.337-6.966c-42.578-48.752-86.606-99.165-117.92-158.557
					c-25.303-47.998-51.899-121.709-34.917-200.301c13.682-63.306,55.669-119.854,112.314-151.267
					c56.636-31.414,126.846-37.083,187.793-15.164c39.204,14.1,72.622,38.172,104.941,61.448c6.807,4.902,13.604,9.8,20.444,14.592
					c34.067,23.872,74.741,48.535,118.11,50.462c36.094,1.667,80.015-19.295,88.032-55.872
					c6.563-29.973,15.566-63.545,39.419-82.561c24.897-19.858,60.244-25.398,90.029-14.109c8.33,3.154,15.64,7.273,22.715,11.255
					c9.551,5.379,17.793,10.022,25.615,10.645c13.442,1.121,27.544-9.724,42.471-21.154c5.605-4.292,11.406-8.733,17.466-12.778
					c45.059-30.086,105.42-33.726,153.77-9.275c37.397,18.916,66.66,54.883,78.276,96.216c5.957,21.196,22.48,36.756,42.095,39.639
					c4.316,0.635,8.145,0.604,11.372-0.103c11.323-2.48,22.529-6.421,34.395-10.591c10.981-3.859,22.334-7.852,34.277-10.808
					c33.667-8.335,62.261-5.254,85,9.167c13.13,8.325,23.164,20.444,28.252,34.124c11.582,31.152-3.618,56.882-15.83,77.556
					c-11.216,18.979-17.31,30.311-12.148,42.412c1.577,3.699,4.39,7.356,8.14,10.576c10.361,8.911,24.229,13.589,38.916,18.543
					c13.242,4.465,26.934,9.084,39.971,17.189c23.11,14.365,43.618,43.914,34.028,74.846c-3.33,10.738-14.741,16.746-25.464,13.414
					c-10.737-3.328-16.743-14.729-13.413-25.464c2.91-9.388-6.177-21.724-16.641-28.228c-9.033-5.615-19.941-9.295-31.489-13.188
					c-16.909-5.703-36.074-12.168-52.446-26.248c-8.564-7.36-14.976-15.933-19.043-25.474
					c-13.491-31.633,2.056-57.944,14.546-79.084c10.879-18.413,17.31-30.325,12.72-42.666c-2.002-5.394-6.23-10.342-11.899-13.936
					c-12.983-8.232-30.947-9.598-53.413-4.031c-10.063,2.49-20.02,5.991-30.566,9.697c-12.495,4.395-25.42,8.938-39.18,11.953
					c-8.032,1.763-16.787,1.966-26.001,0.61c-35.483-5.215-65.063-32.258-75.361-68.894c-8.584-30.545-30.068-57.051-57.461-70.906
					c-34.927-17.663-80.259-14.929-112.803,6.805c-4.961,3.313-9.99,7.165-15.317,11.242
					c-19.424,14.871-41.362,31.714-70.459,29.414c-16.743-1.338-30.347-8.996-42.344-15.754c-6.021-3.389-11.709-6.592-17.168-8.66
					c-16.367-6.198-36.553-3.034-50.229,7.871c-14.556,11.604-21.372,42.728-25.039,59.448
					c-12.71,58.021-75.938,90.232-129.595,87.825c-53.804-2.391-100.791-30.557-139.663-57.791
					c-6.982-4.893-13.926-9.893-20.874-14.897c-31.421-22.634-61.099-44.009-94.932-56.177
					c-50.054-18.008-107.739-13.35-154.277,12.459c-46.533,25.808-81.025,72.263-92.266,124.27
					c-11.235,51.982-0.176,113.323,31.138,172.72c29.097,55.184,71.533,103.774,112.568,150.767
					c7.397,8.465,6.523,21.321-1.938,28.716C1262.188,1770.292,1257.417,1771.945,1252.671,1771.945z"/>
			</g>
			<g>
				<path fill="#650000" d="M2604.145,1081.435c19.712-1.615,40.205,0.236,57.87,9.131c17.665,8.894,32.081,25.675,34.604,45.291
					c4.328,33.625-27.052,62.848-60.011,70.79c-32.959,7.943-67.388,1.039-101.209-1.304c-29.516-2.046-56.582,1.98-83.45,14.306
					C2468.788,1154.662,2558.137,1085.203,2604.145,1081.435z"/>
			</g>
			<g opacity="0.55">
				<path fill="#FFFFFF" d="M2697.097,1139.185c-5.788-6.549-12.922-11.983-20.714-15.916c-17.668-8.879-38.164-10.706-57.878-9.103
					c-36.644,3.004-100.812,47.691-133.86,98.607c-10.862,2.426-21.514,5.985-32.125,10.85
					c16.818-64.998,106.176-134.441,152.167-138.246c19.714-1.604,40.217,0.271,57.886,9.149
					C2680.086,1103.33,2694.386,1119.871,2697.097,1139.185z"/>
			</g>
			<g>
				<path fill="#650000" d="M2451.953,1239.999c-4.692,0-9.336-1.621-13.071-4.748c-6.021-5.044-8.604-13.104-6.636-20.708
					c18.667-72.031,113.262-148.724,170.239-153.392h-0.005c26.509-2.16,49.575,1.614,68.687,11.235
					c24.937,12.559,42.422,35.882,45.64,60.872c5.859,45.529-33.755,83.127-75.43,93.174c-28.589,6.89-56.831,4.055-84.15,1.311
					c-8.032-0.808-15.615-1.569-23.232-2.097c-27.446-1.902-50.82,2.067-73.56,12.5
					C2457.72,1239.392,2454.824,1239.999,2451.953,1239.999z M2521.309,1184.494c5.088,0,10.254,0.183,15.498,0.547
					c8.242,0.571,16.504,1.398,24.487,2.202c25.039,2.515,48.682,4.89,70.547-0.381c23.804-5.737,47.407-26.561,44.595-48.408
					c-1.489-11.59-10.742-23.252-23.574-29.712c-12.334-6.209-28.159-8.579-47.051-7.024h-0.005
					c-29.189,2.393-85.435,41.304-115.796,85.234C2500.142,1185.31,2510.552,1184.494,2521.309,1184.494z M2604.146,1081.435h0.049
					H2604.146z"/>
			</g>
			<g>
				<path fill="#650000" d="M874.72,1086.504c-47.547-1.737-98.854,17.558-122.108,59.067c-12.89,23.008-15.216,53.819,0.978,74.635
					c17.061,21.931,49.22,26.475,76.252,20.05c27.032-6.426,51.017-21.588,76.325-33.056c25.309-11.468,54.419-19.315,80.675-10.224
					c11.484,3.977,21.868,11.038,33.735,13.66c11.867,2.623,26.692-1.111,30.985-12.48
					C1078.604,1126.54,912.564,1087.888,874.72,1086.504z"/>
			</g>
			<g opacity="0.55">
				<path fill="#FFFFFF" d="M1054.503,1182.529c-39.972-38.3-134.312-58.739-161.681-59.778
					c-47.513-1.751-98.863,17.522-122.095,59.029c-7.69,13.764-11.589,30.285-10.053,45.787c-2.595-2.201-4.932-4.633-7.072-7.384
					c-16.216-20.78-13.874-51.588-1.007-74.631c23.28-41.515,74.583-60.781,122.143-59.036
					C909.757,1087.772,1054.386,1120.921,1054.503,1182.529z"/>
			</g>
			<g>
				<path fill="#650000" d="M807.178,1263.319c-28.579,0-54.331-10.92-69.653-30.617c-22.915-29.448-17.852-69.979-2.666-97.078
					c24.873-44.404,80.181-71.709,140.605-69.458l0,0c28.027,1.025,150.869,24.849,188.149,80.945
					c12.09,18.188,14.507,38.325,6.987,58.234c-8.428,22.293-34.365,29.59-54.414,25.164c-9.238-2.041-17.222-5.84-24.268-9.192
					c-4.15-1.975-8.071-3.84-11.738-5.109c-16.997-5.892-38.462-2.771-65.615,9.531c-7.153,3.242-14.18,6.787-21.621,10.539
					c-18.237,9.199-37.095,18.714-58.398,23.777C825.303,1262.253,816.099,1263.317,807.178,1263.319z M868.511,1106.74
					c-43.218,0-81.353,18.806-98.145,48.776c-8.33,14.873-12.109,37.549-0.718,52.192c11.763,15.122,36.338,17.293,55.483,12.747
					c16.655-3.958,32.603-12.002,49.482-20.518c7.485-3.777,15.225-7.681,23.154-11.274c37.095-16.807,68.403-20.384,95.732-10.918
					c5.801,2.009,10.938,4.453,15.903,6.816c5.581,2.653,10.85,5.161,15.562,6.201c3.32,0.734,6.548,0.08,7.842-0.581
					c2.539-7.298,1.597-13.486-3.091-20.54c-24.678-37.126-127.573-61.772-155.737-62.803l0,0
					C872.148,1106.774,870.322,1106.74,868.511,1106.74z"/>
			</g>
			<g>
				<path fill="#650000" d="M1759.565,1302.282c-0.454,3.034-0.879,5.078-1.384,7.459c-0.469,2.322-1.006,4.56-1.55,6.786
					c-1.045,4.491-2.297,8.82-3.525,13.179c-2.583,8.64-5.349,17.154-8.54,25.472c-6.306,16.658-13.508,32.839-21.833,48.363
					c-8.416,15.463-17.31,30.594-27.52,44.783c-4.824,7.267-10.349,14.045-15.603,20.958c-5.349,6.849-11.199,13.3-16.748,19.923
					c-2.554,3.048-7.092,3.448-10.142,0.896c-2.805-2.351-3.367-6.384-1.448-9.388l0.281-0.44
					c4.512-7.077,9.29-13.928,13.538-21.109c4.15-7.248,8.547-14.303,12.214-21.777c7.9-14.608,14.38-29.896,20.332-45.227
					c5.857-15.387,10.535-31.145,14.29-46.958c1.917-7.899,3.396-15.862,4.69-23.773c0.574-3.946,1.191-7.916,1.57-11.806
					c0.22-1.955,0.43-3.902,0.554-5.79c0.156-1.817,0.288-3.988,0.283-5.183c-0.029-11.284,9.094-20.457,20.378-20.488
					c11.284-0.03,20.457,9.094,20.488,20.378c0.002,1.007-0.068,1.997-0.205,2.965L1759.565,1302.282z"/>
			</g>
			<g opacity="0.3">
				<path fill="#650000" d="M2596.721,1459.937l1.006,7.038c-9.646-5.027-20.727-9.897-33.322-14.503
					c11.883,1.99,22.629,4.19,32.16,6.711C2596.646,1459.413,2596.687,1459.698,2596.721,1459.937z"/>
			</g>
			<g opacity="0.3">
				<path fill="#650000" d="M2305.953,1741.381c108.951-29.543,214.196-74.055,279.035-121.329
					c14.225-10.371,34.342-1.868,36.832,15.56l103.977,727.734c69.254,484.707-247.865,722.655-606.781,792.035
					c181.026-94.525,302.291-265.332,250.85-656.264l-100.371-702.499C2265.928,1771.653,2281.565,1747.972,2305.953,1741.381z"/>
			</g>
			<g>
				<path fill="#FFFFFF" d="M1822.674,2688.711c-75.375-0.492-148.55-6.425-219.329-18.279
					c-31.125-5.213-55.197-30.164-59.661-61.405l-77.512-542.509c-6.846-47.917,34.119-88.808,82.079-82.267
					c62.585,8.535,128.021,11.713,195.71,10.648c36.45-0.572,67.537,26.334,72.693,62.422l78.347,548.354
					C1901.279,2649.611,1867.057,2689.001,1822.674,2688.711z"/>
			</g>
			<g>
				<path fill="#FFFFFF" d="M1889.844,2987.916c-94.803,14.353-184.243,10.665-264.97-22.332
					c-19.797-8.092-33.949-25.921-36.974-47.093l-12.002-84.003c-5.702-39.903,28.864-73.709,68.688-67.478
					c71.408,11.175,145.532,14.763,221.688,12.678c30.398-0.832,56.617,21.186,60.918,51.289l12.764,89.332
					C1944.592,2952.756,1922.25,2983.01,1889.844,2987.916z"/>
			</g>
			<g opacity="0.2">
				<path fill="#FFFFFF" d="M1326.218,1466.277c-31.043,43.375-68.025,70.08-98.75,48.092
					c-30.724-21.989-30.465-74.978,0.578-118.353s81.115-60.712,111.839-38.723
					C1370.609,1379.282,1357.261,1422.902,1326.218,1466.277z"/>
			</g>
			<g opacity="0.3">
				<path fill="#650000" d="M2426.492,1612.344c-11.8,11.388-31.875,9.029-45.43-0.201s-22.498-23.612-32.363-36.712
					c-9.863-13.101-22.079-25.915-38.101-29.412c-18.69-4.081-37.494,5.449-56.574,6.842c-32.549,2.375-62.276-19.176-83.167-44.248
					c-20.891-25.073-36.303-54.6-59.192-77.861c-33.616-34.163-82.817-52.346-130.571-48.253
					c-47.753,4.092-93.144,30.38-120.458,69.765c-19.565,28.212-29.748,61.758-45.866,92.072
					c-16.118,30.313-41.248,59.226-75.051,65.233c-28.95,5.146-59.958-7.342-87.588,2.717
					c-23.024,8.381-38.074,30.624-47.768,53.127c-9.694,22.504-15.769,46.759-28.86,67.472
					c-13.091,20.712-35.904,37.901-60.226,34.932C1833.968,1757.419,2138.875,1708.834,2426.492,1612.344z"/>
			</g>
		</g>
		<g>
			<g>
				<path fill="#AD651E" d="M1532.181,1083.999c-86.339,7.196-165.813-100.106-177.513-239.722
					c-11.121-132.884,43.113-247.14,122.873-264.093c4.026-0.863,8.133-1.475,12.321-1.833c1.662-0.209,3.325-0.417,5.013-0.58
					C1824.835,538.828,1888.449,1054.157,1532.181,1083.999z"/>
			</g>
			<g opacity="0.3">
				<path fill="#650000" d="M1532.181,1083.999c-29.682,2.482-58.484-8.559-84.041-29.81
					c266.082-44.935,266.61-381.429,80.007-478.516C1828.702,573.907,1876.14,1055.154,1532.181,1083.999z"/>
			</g>
			<g opacity="0.6">
				<path fill="#FFFFFF" d="M1477.541,580.185l2.157,33.595c-59.483,38.516-96.486,137.2-87.095,249.054
					c8.201,97.695,49.572,179.602,103.28,217.47c-71.321-20.309-131.196-116.282-141.214-236.025
					C1343.547,711.394,1397.781,597.138,1477.541,580.185z"/>
			</g>
			<g>
				<path fill="#650000" d="M1523.726,1104.704c-94.814,0-176.948-110.874-189.336-258.729
					c-5.972-71.247,5.732-139.978,32.949-193.53c28.75-56.555,71.46-90.036,120.313-94.331
					c102.451-13.547,190.469,21.434,247.896,98.55c61.436,82.485,74.473,200.55,32.441,293.779
					c-40.552,89.949-123.691,144.583-234.106,153.838c-0.005,0-0.005,0-0.01,0
					C1530.483,1104.564,1527.09,1104.704,1523.726,1104.704z M1532.183,1084.001h0.049H1532.183z M1529.458,596.008
					c-12.012,0-24.321,0.832-36.895,2.515c-0.337,0.046-0.669,0.083-1.006,0.109c-34.482,2.884-65.713,28.545-87.93,72.256
					c-23.843,46.902-34.028,107.876-28.682,171.689c10.557,126.009,81.572,227.278,155.547,221.143
					c95.02-7.969,166.187-54.138,200.386-130.002c36.143-80.174,24.902-181.743-27.974-252.742
					C1661.558,625.458,1600.864,596.008,1529.458,596.008z"/>
			</g>
			<g>
				<path fill="#650000" d="M1532.153,1104.333c-10.469,0-19.365-8.03-20.254-18.652c-0.942-11.201,7.378-21.043,18.579-21.98
					c73.75-6.177,127.144-117.881,116.592-243.928c-10.562-126.05-82.007-227.363-155.532-221.141
					c-11.143,0.933-21.04-7.378-21.978-18.584c-0.938-11.198,7.378-21.04,18.579-21.978c98.97-8.342,186.66,105.171,199.487,258.306
					c12.822,153.138-54.712,279.59-153.75,287.886C1533.301,1104.311,1532.725,1104.333,1532.153,1104.333z"/>
			</g>
			<g>
				<path fill="#650000" d="M1484.373,582.831c-4.934,20.933-8.508,41.672-8.809,62.253c-0.598,20.551,2.036,40.746,6.978,60.482
					c9.68,39.613,29.709,77.145,47.488,117.92c8.909,20.382,17.224,41.724,23.135,64.259c5.798,22.527,8.94,46.298,7.996,69.919
					c-0.791,23.625-5.623,46.877-13.362,68.563c-8.088,21.606-18.557,41.846-31.208,60.394c-2.258,3.311-6.772,4.164-10.085,1.905
					c-2.747-1.874-3.801-5.299-2.793-8.302l0.073-0.217c6.912-20.551,13.518-40.724,17.434-61.203l2.666-15.287l1.541-15.302
					c0.403-5.084,0.417-10.173,0.664-15.225c0.181-5.057-0.281-10.113-0.308-15.139c-1.118-20.121-4.768-39.945-10.759-59.511
					c-5.864-19.606-13.792-38.985-22.273-58.7c-8.474-19.718-17.634-39.763-25.674-60.846c-8.132-21-14.966-43.252-18.589-66.405
					c-3.657-23.12-3.623-47.041,0.234-69.988c4.036-22.947,11.631-44.85,22.217-64.783c1.88-3.538,6.272-4.884,9.812-3.004
					c2.974,1.579,4.397,4.936,3.66,8.066L1484.373,582.831z"/>
			</g>
		</g>
		<g>
			<g>
				<path fill="#AD651E" d="M1994.605,785.643c-65.73-56.441-45.092-188.365,46.132-294.701
					c86.838-101.198,206.283-142.773,274.345-97.867c3.441,2.263,6.76,4.759,9.955,7.489c1.315,1.037,2.631,2.076,3.932,3.163
					C2588.32,611.398,2265.941,1018.439,1994.605,785.643z"/>
			</g>
			<g opacity="0.3">
				<path fill="#650000" d="M1994.605,785.643c-22.603-19.397-34.956-47.662-37.76-80.781
					c218.779,157.969,458.811-77.855,396.973-278.909C2566.051,638.776,2256.591,1010.373,1994.605,785.643z"/>
			</g>
			<g opacity="0.6">
				<path fill="#FFFFFF" d="M2315.082,393.074l-22.413,25.119c-69.185-15.329-165.446,27.588-238.52,112.791
					c-63.825,74.418-93.12,161.377-82.39,226.211c-35.6-65.052-9.274-175.065,68.978-266.254
					C2127.575,389.743,2247.021,348.168,2315.082,393.074z"/>
			</g>
			<g>
				<path fill="#650000" d="M2167.188,875.927c-64.287,0-128.154-25.356-185.835-74.836c0-0.003-0.005-0.005-0.005-0.008
					c-75.396-64.736-56.094-206.789,43.945-323.394c46.553-54.265,103.721-94.175,160.972-112.38
					c60.464-19.217,114.292-12.298,151.631,19.473c81.563,63.447,118.438,150.7,103.823,245.737
					c-15.625,101.657-90.562,193.813-186.47,229.323C2226.182,870.604,2196.636,875.927,2167.188,875.927z M2007.861,770.204
					c72.378,62.08,155.205,80.361,233.257,51.468c82.471-30.535,146.919-109.839,160.371-197.337
					c12.29-79.924-19.292-153.684-88.921-207.69c-0.269-0.205-0.527-0.42-0.781-0.637c-26.26-22.534-66.45-26.772-113.188-11.907
					c-50.142,15.942-100.718,51.489-142.417,100.093C1973.843,600.173,1951.714,721.989,2007.861,770.204L2007.861,770.204z"/>
			</g>
			<g>
				<path fill="#650000" d="M2069.307,831.532c-34.258,0-64.399-10.259-87.939-30.459c-8.53-7.319-9.512-20.166-2.192-28.696
					c7.314-8.535,20.166-9.512,28.696-2.192c26.24,22.522,66.431,26.746,113.159,11.893
					c50.137-15.94,100.708-51.484,142.407-100.083s69.146-103.987,77.28-155.962c7.583-48.436-2.7-87.513-28.95-110.039
					c-8.53-7.319-9.512-20.166-2.192-28.696c7.314-8.535,20.171-9.517,28.696-2.192c37.354,32.051,52.505,84.336,42.661,147.222
					c-9.292,59.348-40.049,121.914-86.606,176.172c-46.553,54.26-103.716,94.167-160.962,112.368
					C2110.928,828,2089.409,831.532,2069.307,831.532z"/>
			</g>
			<g>
				<path fill="#650000" d="M2317.993,399.799c-18.374,11.179-35.652,23.191-50.522,37.424c-15.057,14-27.59,30.053-38.179,47.425
					c-21.419,34.703-34.089,75.313-50.652,116.597c-8.261,20.651-17.626,41.555-29.526,61.583
					c-11.975,19.944-26.699,38.868-44.187,54.775c-17.383,16.021-37.334,28.899-58.21,38.611
					c-21.067,9.405-42.832,16.155-64.922,20.164c-3.943,0.716-7.72-1.901-8.435-5.846c-0.593-3.271,1.104-6.427,3.95-7.817
					l0.208-0.098c19.487-9.506,38.494-18.959,55.828-30.546l12.759-8.833l11.98-9.642c3.903-3.283,7.539-6.845,11.308-10.216
					c3.729-3.421,7.007-7.297,10.566-10.846c13.546-14.919,25.103-31.436,34.834-49.435c9.847-17.94,18.087-37.19,26.173-57.069
					c8.096-19.876,15.944-40.47,25.316-60.995c9.248-20.533,20.299-41.021,34.246-59.854c13.898-18.834,30.962-35.601,50.012-48.962
					c19.178-13.233,40.108-23.197,61.736-29.649c3.84-1.146,7.881,1.039,9.025,4.879c0.963,3.228-0.427,6.597-3.174,8.271
					L2317.993,399.799z"/>
			</g>
		</g>
	</g>
	<g opacity="0.2">
		<ellipse fill="#650000" cx="2000" cy="3696.719" rx="652.94" ry="101.245"/>
	</g>
</g>
</svg>
