<?xml version="1.0" encoding="utf-8"?>
<!-- Generator: Adobe Illustrator 16.0.0, SVG Export Plug-In . SVG Version: 6.00 Build 0)  -->
<!DOCTYPE svg PUBLIC "-//W3C//DTD SVG 1.1//EN" "http://www.w3.org/Graphics/SVG/1.1/DTD/svg11.dtd">
<svg version="1.1" id="Layer_1" xmlns="http://www.w3.org/2000/svg" xmlns:xlink="http://www.w3.org/1999/xlink" x="0px" y="0px"
	 width="2048px" height="2048px" viewBox="0 0 2048 2048" style="enable-background:new 0 0 2048 2048;" xml:space="preserve">
<style type="text/css">
<![CDATA[
	.st0{fill:#4D4F4D;}
	.st1{fill:none;stroke:#4A4A4B;stroke-width:10;stroke-miterlimit:10;}
	.st2{fill:#F1A61F;}
	.st3{fill:none;stroke:#FFFFFF;stroke-width:5;stroke-linecap:round;stroke-miterlimit:10;}
	.st4{fill:#FCBB3B;}
	.st5{fill:#FFE5C2;}
	.st6{fill:#646162;}
]]>
</style>
<rect x="4.9" class="st5" width="2038.1" height="2048"/>
<g>
	<path class="st0" d="M1594.7,819.8v82c0,8.9-2.9,17.1-7.9,23.8c-7.3,9.7-18.9,16-31.9,16h-84.4c-12.3,0-23.3-5.6-30.7-14.5
		c-5.7-6.9-9.1-15.7-9.1-25.3v-82c0-21.9,17.9-39.8,39.8-39.8h84.4C1576.8,780,1594.7,797.9,1594.7,819.8"/>
	<path class="st6" d="M1586.8,925.5c-7.3,9.7-18.9,16-31.9,16h-84.4c-12.3,0-23.3-5.6-30.7-14.5c3.1-1,6.3-1.5,9.7-1.5H1586.8z"/>
	<path class="st4" d="M1515.6,933.2h63.3c23.1,0,23.6,11.4,26.4,36.5c2.8,25.1,16.4,85.9,48.4,143.5c32,57.6-14.1,198.9-138.2,195.6
		h-1.4c-124.1,3.3-170.2-138.1-138.2-195.6c32-57.6,45.7-118.4,48.5-143.5c2.8-25.1,3.3-36.5,26.4-36.5h63.3H1515.6z"/>
	<rect x="1462.8" y="932.7" class="st2" width="99.6" height="25.7"/>
	<path class="st2" d="M1592,1097.6c-18-24.7-46.3-28.5-56-28.3c-3.8-27.2-5.7-110.9-5.7-110.9c-0.7-6.4-8.4-4.2-8.4-4.2v48.6
		c0,36.2,4.9,48.8,5.6,63.3c-3.9-0.7-32.3-0.8-33.1-0.5c9.7-26.2,5.9-102.1,5.9-107.2c0-5.1-7.8-9.9-6.7,0
		c2.4,58.3-5.8,93.7-8.2,109.3c-9.2,1.5-24.3,4.6-40.3,17.1c-16,12.4-27.5,40,4.9,38.9c32.4-1.2,38.6-37.7,44.7-49.5
		c9.5,0.9,35.4,0.3,35.4,0.3c0.7,15.8,8.8,27.9,15.9,35.8c5.6,6.3,13.2,10.4,21.5,12.1C1593.2,1127.7,1603.9,1115.4,1592,1097.6
		 M1462.5,1109c-12.6,13.1-34.7,8.5-22.6-8c15.9-22.2,43.3-24.9,43.3-24.9C1480.1,1089.7,1473.5,1097.7,1462.5,1109 M1575.1,1115.5
		c-25.6-3.3-36.9-39.5-36.9-39.5s10.4,0.6,26.2,8.8C1580.5,1093.2,1597.5,1118,1575.1,1115.5"/>
	<line class="st1" x1="1512.8" y1="781.4" x2="1512.8" y2="0"/>
	<path class="st3" d="M1554.4,1269.1c0,0,75-24.6,74.3-125.1"/>
</g>
</svg>
