<svg id="visual" viewBox="0 0 900 600" width="900" height="600" xmlns="http://www.w3.org/2000/svg" xmlns:xlink="http://www.w3.org/1999/xlink" version="1.1"><rect x="0" y="0" width="900" height="600" fill="#3e8cc9"></rect><path d="M0 399L21.5 399.3C43 399.7 86 400.3 128.8 399.3C171.7 398.3 214.3 395.7 257.2 390.8C300 386 343 379 385.8 377.2C428.7 375.3 471.3 378.7 514.2 377.8C557 377 600 372 642.8 377.7C685.7 383.3 728.3 399.7 771.2 408.3C814 417 857 418 878.5 418.5L900 419L900 601L878.5 601C857 601 814 601 771.2 601C728.3 601 685.7 601 642.8 601C600 601 557 601 514.2 601C471.3 601 428.7 601 385.8 601C343 601 300 601 257.2 601C214.3 601 171.7 601 128.8 601C86 601 43 601 21.5 601L0 601Z" fill="#fab869"></path><path d="M0 398L21.5 405.3C43 412.7 86 427.3 128.8 430C171.7 432.7 214.3 423.3 257.2 420.2C300 417 343 420 385.8 422C428.7 424 471.3 425 514.2 426.8C557 428.7 600 431.3 642.8 437.7C685.7 444 728.3 454 771.2 447.2C814 440.3 857 416.7 878.5 404.8L900 393L900 601L878.5 601C857 601 814 601 771.2 601C728.3 601 685.7 601 642.8 601C600 601 557 601 514.2 601C471.3 601 428.7 601 385.8 601C343 601 300 601 257.2 601C214.3 601 171.7 601 128.8 601C86 601 43 601 21.5 601L0 601Z" fill="#eea557"></path><path d="M0 471L21.5 466.5C43 462 86 453 128.8 452.7C171.7 452.3 214.3 460.7 257.2 460.3C300 460 343 451 385.8 449C428.7 447 471.3 452 514.2 453.5C557 455 600 453 642.8 458.5C685.7 464 728.3 477 771.2 475.8C814 474.7 857 459.3 878.5 451.7L900 444L900 601L878.5 601C857 601 814 601 771.2 601C728.3 601 685.7 601 642.8 601C600 601 557 601 514.2 601C471.3 601 428.7 601 385.8 601C343 601 300 601 257.2 601C214.3 601 171.7 601 128.8 601C86 601 43 601 21.5 601L0 601Z" fill="#e19346"></path><path d="M0 519L21.5 517.7C43 516.3 86 513.7 128.8 513.7C171.7 513.7 214.3 516.3 257.2 520.2C300 524 343 529 385.8 532.5C428.7 536 471.3 538 514.2 532C557 526 600 512 642.8 509.5C685.7 507 728.3 516 771.2 521.7C814 527.3 857 529.7 878.5 530.8L900 532L900 601L878.5 601C857 601 814 601 771.2 601C728.3 601 685.7 601 642.8 601C600 601 557 601 514.2 601C471.3 601 428.7 601 385.8 601C343 601 300 601 257.2 601C214.3 601 171.7 601 128.8 601C86 601 43 601 21.5 601L0 601Z" fill="#d48135"></path><path d="M0 524L21.5 526.8C43 529.7 86 535.3 128.8 542.2C171.7 549 214.3 557 257.2 555.5C300 554 343 543 385.8 537.7C428.7 532.3 471.3 532.7 514.2 537.3C557 542 600 551 642.8 556.3C685.7 561.7 728.3 563.3 771.2 561.2C814 559 857 553 878.5 550L900 547L900 601L878.5 601C857 601 814 601 771.2 601C728.3 601 685.7 601 642.8 601C600 601 557 601 514.2 601C471.3 601 428.7 601 385.8 601C343 601 300 601 257.2 601C214.3 601 171.7 601 128.8 601C86 601 43 601 21.5 601L0 601Z" fill="#c76e24"></path></svg>