<?xml version="1.0" encoding="utf-8"?>
<!-- Generator: Adobe Illustrator 16.0.0, SVG Export Plug-In . SVG Version: 6.00 Build 0)  -->
<!DOCTYPE svg PUBLIC "-//W3C//DTD SVG 1.1//EN" "http://www.w3.org/Graphics/SVG/1.1/DTD/svg11.dtd">
<svg version="1.1" id="Layer_1" xmlns="http://www.w3.org/2000/svg" xmlns:xlink="http://www.w3.org/1999/xlink" x="0px" y="0px"
	 width="2048px" height="2048px" viewBox="0 0 2048 2048" enable-background="new 0 0 2048 2048" xml:space="preserve">
<rect x="4.9" fill="#333333" width="2038.1" height="2048"/>
<g>
	<path fill="#4D4F4D" d="M1594.7,819.8v82c0,8.9-2.9,17.101-7.9,23.8c-7.3,9.7-18.899,16-31.899,16h-84.4
		c-12.301,0-23.301-5.6-30.7-14.5c-5.7-6.899-9.1-15.699-9.1-25.3v-82c0-21.899,17.899-39.8,39.8-39.8h84.4
		C1576.8,780,1594.7,797.9,1594.7,819.8"/>
	<path fill="#646162" d="M1586.8,925.5c-7.3,9.7-18.899,16-31.899,16h-84.4c-12.3,0-23.3-5.6-30.7-14.5c3.101-1,6.3-1.5,9.7-1.5
		H1586.8z"/>
	<path fill="#F3F4F5" d="M1515.6,933.2h63.301c23.1,0,23.6,11.399,26.399,36.5c2.8,25.1,16.4,85.899,48.4,143.5
		c32,57.6-14.101,198.899-138.2,195.6h-1.4c-124.1,3.3-170.199-138.1-138.199-195.6c32-57.601,45.699-118.4,48.5-143.5
		c2.8-25.101,3.3-36.5,26.4-36.5h63.299H1515.6L1515.6,933.2z"/>
	<rect x="1462.8" y="932.7" fill="#CBCAC9" width="99.601" height="25.7"/>
	<path fill="#CBCAC9" d="M1592,1097.6c-18-24.699-46.3-28.5-56-28.3c-3.8-27.2-5.7-110.899-5.7-110.899
		c-0.7-6.4-8.399-4.2-8.399-4.2v48.6c0,36.2,4.899,48.8,5.6,63.3c-3.9-0.699-32.3-0.8-33.1-0.5
		c9.699-26.199,5.899-102.1,5.899-107.2c0-5.1-7.8-9.899-6.7,0c2.4,58.301-5.8,93.7-8.199,109.301c-9.2,1.5-24.301,4.6-40.301,17.1
		c-16,12.4-27.5,40,4.9,38.9c32.4-1.2,38.6-37.7,44.7-49.5c9.5,0.899,35.399,0.3,35.399,0.3c0.7,15.8,8.801,27.9,15.9,35.8
		c5.6,6.3,13.2,10.4,21.5,12.101C1593.2,1127.7,1603.9,1115.4,1592,1097.6 M1462.5,1109c-12.6,13.1-34.7,8.5-22.6-8
		c15.899-22.2,43.3-24.9,43.3-24.9C1480.1,1089.7,1473.5,1097.7,1462.5,1109 M1575.1,1115.5c-25.6-3.3-36.899-39.5-36.899-39.5
		s10.399,0.6,26.2,8.8C1580.5,1093.2,1597.5,1118,1575.1,1115.5"/>
	<line fill="none" stroke="#4A4A4B" stroke-width="10" stroke-miterlimit="10" x1="1512.8" y1="781.4" x2="1512.8" y2="0"/>
	<path fill="none" stroke="#FFFFFF" stroke-width="5" stroke-linecap="round" stroke-miterlimit="10" d="M1554.4,1269.1
		c0,0,75-24.6,74.3-125.1"/>
</g>
</svg>
