<svg id="visual" viewBox="0 0 900 600" width="900" height="600" xmlns="http://www.w3.org/2000/svg" xmlns:xlink="http://www.w3.org/1999/xlink" version="1.1"><path d="M0 408L21.5 401.3C43 394.7 86 381.3 128.8 380.5C171.7 379.7 214.3 391.3 257.2 396.3C300 401.3 343 399.7 385.8 404.3C428.7 409 471.3 420 514.2 426C557 432 600 433 642.8 431.2C685.7 429.3 728.3 424.7 771.2 412.5C814 400.3 857 380.7 878.5 370.8L900 361L900 601L878.5 601C857 601 814 601 771.2 601C728.3 601 685.7 601 642.8 601C600 601 557 601 514.2 601C471.3 601 428.7 601 385.8 601C343 601 300 601 257.2 601C214.3 601 171.7 601 128.8 601C86 601 43 601 21.5 601L0 601Z" fill="#4354fd"></path><path d="M0 408L21.5 416.3C43 424.7 86 441.3 128.8 440.7C171.7 440 214.3 422 257.2 422.8C300 423.7 343 443.3 385.8 442C428.7 440.7 471.3 418.3 514.2 414C557 409.7 600 423.3 642.8 433.8C685.7 444.3 728.3 451.7 771.2 449.3C814 447 857 435 878.5 429L900 423L900 601L878.5 601C857 601 814 601 771.2 601C728.3 601 685.7 601 642.8 601C600 601 557 601 514.2 601C471.3 601 428.7 601 385.8 601C343 601 300 601 257.2 601C214.3 601 171.7 601 128.8 601C86 601 43 601 21.5 601L0 601Z" fill="#3e49ef"></path><path d="M0 464L21.5 470.8C43 477.7 86 491.3 128.8 493.2C171.7 495 214.3 485 257.2 475.7C300 466.3 343 457.7 385.8 452C428.7 446.3 471.3 443.7 514.2 449C557 454.3 600 467.7 642.8 473.5C685.7 479.3 728.3 477.7 771.2 470.8C814 464 857 452 878.5 446L900 440L900 601L878.5 601C857 601 814 601 771.2 601C728.3 601 685.7 601 642.8 601C600 601 557 601 514.2 601C471.3 601 428.7 601 385.8 601C343 601 300 601 257.2 601C214.3 601 171.7 601 128.8 601C86 601 43 601 21.5 601L0 601Z" fill="#393de2"></path><path d="M0 522L21.5 523.3C43 524.7 86 527.3 128.8 530.8C171.7 534.3 214.3 538.7 257.2 530.8C300 523 343 503 385.8 500.8C428.7 498.7 471.3 514.3 514.2 515C557 515.7 600 501.3 642.8 497.3C685.7 493.3 728.3 499.7 771.2 504.7C814 509.7 857 513.3 878.5 515.2L900 517L900 601L878.5 601C857 601 814 601 771.2 601C728.3 601 685.7 601 642.8 601C600 601 557 601 514.2 601C471.3 601 428.7 601 385.8 601C343 601 300 601 257.2 601C214.3 601 171.7 601 128.8 601C86 601 43 601 21.5 601L0 601Z" fill="#3431d4"></path><path d="M0 547L21.5 545.5C43 544 86 541 128.8 541C171.7 541 214.3 544 257.2 543.8C300 543.7 343 540.3 385.8 538.5C428.7 536.7 471.3 536.3 514.2 534.8C557 533.3 600 530.7 642.8 530.5C685.7 530.3 728.3 532.7 771.2 533.8C814 535 857 535 878.5 535L900 535L900 601L878.5 601C857 601 814 601 771.2 601C728.3 601 685.7 601 642.8 601C600 601 557 601 514.2 601C471.3 601 428.7 601 385.8 601C343 601 300 601 257.2 601C214.3 601 171.7 601 128.8 601C86 601 43 601 21.5 601L0 601Z" fill="#2e24c7"></path></svg>